<?xml version="1.0" encoding="utf-8"?>
<!-- Generator: Adobe Illustrator 23.0.1, SVG Export Plug-In . SVG Version: 6.00 Build 0)  -->
<svg version="1.1" id="Layer_1" xmlns="http://www.w3.org/2000/svg" xmlns:xlink="http://www.w3.org/1999/xlink" x="0px" y="0px"
	 viewBox="0 0 150 81.8" style="enable-background:new 0 0 150 81.8;" xml:space="preserve">
<style type="text/css">
	.st0{fill:#A7C430;}
	.st1{fill:#0185C1;}
	.st2{fill:#1D1D1B;}
	.st3{fill:#1E1E1C;}
	.st4{fill:#20201E;}
</style>
<g>
	<g>
		<path d="M84.1,10.5l-1.2,0.7c0-0.1-0.2-0.5-0.5-1.2c-0.3-0.8-0.8-1.7-1.2-2.8h-4.7c-0.6,1.2-1,2.2-1.3,2.9c-0.3,0.7-0.5,1-0.5,1.1
			l-1-0.6c0.1-0.3,0.8-1.5,1.7-3.7c1-2.2,2.1-4.4,3.1-6.8h1c1,2.3,2.1,4.7,3.1,6.8C83.5,9.3,84.1,10.4,84.1,10.5z M80.6,6.1
			C80.3,5.4,80,4.8,79.7,4S79,2.6,78.8,1.7l0,0c-0.3,0.6-0.6,1.3-0.9,2.2s-0.7,1.5-1,2.1l0,0L80.6,6.1L80.6,6.1z"/>
		<path d="M97,11h-1.2c0-0.1,0-0.5,0-1.1s0-1.3,0-2c0-0.3,0-0.7,0-1.1c0-0.6,0-0.9,0-1.2c0-0.7-0.2-1-0.4-1.3
			c-0.3-0.3-0.6-0.4-1.1-0.4c-0.3,0-0.7,0.1-1,0.2c-0.4,0.2-0.8,0.4-1.4,0.7c0,0,0,0.1,0,0.2s0,0.2,0,0.3c0,0.5,0,0.8,0,1.3
			s0,0.8,0,1.2c0,0.8,0,1.6,0,2.3c0,0.6,0,0.9,0,0.9h-1.2c0-0.1,0-0.4,0-0.9s0-1.3,0-2.1c0-0.3,0-0.7,0-1.2s0-0.9,0-1.2
			c0-0.2,0-0.5-0.1-0.7c0-0.2-0.1-0.4-0.2-0.6S90.1,4,89.9,3.9s-0.4-0.1-0.8-0.1c-0.3,0-0.7,0.1-1,0.3s-0.8,0.5-1.4,0.8
			c0,0.1,0,0.5,0,1s0,1,0,1.4c0,0.7,0,1.4,0,2.3s0,1.3,0,1.4h-1.2c0,0,0-0.4,0-0.9s0-1.5,0-2.8c0-0.5,0-1,0-1.8s0-1.6,0-2.5h1.2v0.9
			l0,0C87.1,3.5,87.5,3.3,88,3c0.6-0.3,1-0.4,1.4-0.4c0.6,0,0.9,0.1,1.3,0.3s0.6,0.5,0.8,0.8l0,0c0.6-0.4,1.1-0.7,1.7-0.8
			c0.5-0.2,0.9-0.3,1.3-0.3c0.8,0,1.3,0.2,1.7,0.7s0.7,1,0.7,1.7c0,0.6,0,1,0,1.4s0,0.8,0,1.2c0,0.8,0,1.6,0,2.3
			C97,10.6,97,10.9,97,11z"/>
		<path d="M106,6.7h-5.7c0,0.6,0.1,1,0.4,1.5c0.2,0.5,0.6,0.8,1,1.1c0.3,0.2,0.7,0.4,1,0.5c0.4,0.1,0.8,0.2,1.4,0.2
			c0.3,0,0.6,0,0.8,0c0.3,0,0.4,0,0.5,0l-0.2,1c0,0-0.2,0-0.4,0c-0.3,0-0.6,0-0.8,0c-0.8,0-1.6-0.1-2.3-0.4
			c-0.7-0.2-1.1-0.6-1.5-0.9c-0.4-0.3-0.7-0.8-0.8-1.2C99.1,8,99,7.5,99,6.8c0-0.6,0.1-1.1,0.3-1.6c0.2-0.5,0.5-0.9,0.8-1.3
			s0.7-0.7,1.1-0.8c0.5-0.2,0.9-0.3,1.4-0.3s0.9,0.1,1.3,0.2c0.4,0.2,0.8,0.4,1,0.7c0.3,0.4,0.6,0.8,0.8,1.2
			C105.9,5.3,106,5.9,106,6.7z M104.8,5.7c-0.1-0.7-0.3-1.1-0.7-1.5c-0.4-0.4-0.8-0.6-1.4-0.6s-1.1,0.2-1.5,0.6s-0.7,0.8-0.8,1.5
			H104.8z"/>
		<path d="M112.8,3.8c-0.3,0.1-0.8,0.2-1.3,0.5c-0.6,0.2-1.3,0.6-2.1,0.8c0,0.1,0,0.3,0,0.8s0,0.9,0,1.3c0,0.7,0,1.4,0,2.3
			s0,1.3,0,1.4h-1.2c0-0.1,0-0.4,0-0.8s0-1.4,0-2.5c0-0.5,0-1.2,0-2.1s0-1.7,0-2.5h1.2v1.2l0,0c0.6-0.4,1.2-0.7,1.8-0.8
			s1-0.4,1.4-0.5L112.8,3.8z"/>
		<path d="M115.8,1.4h-1.4V0h1.4V1.4z M115.7,11h-1.2c0-0.1,0-0.6,0-1.6c0-0.9,0-1.8,0-2.3s0-1.1,0-1.8s0-1.4,0-2.3h1.2
			c0,0.8,0,1.5,0,2.2s0,1.2,0,1.8c0,1.2,0,2.3,0,3C115.7,10.5,115.7,10.9,115.7,11z"/>
		<path d="M124,9.9l-0.1,1c0,0-0.1,0-0.2,0s-0.2,0-0.2,0c-0.7,0-1.3-0.1-1.9-0.2c-0.6-0.1-1.1-0.3-1.6-0.6c-0.7-0.4-1.1-0.8-1.5-1.4
			c-0.4-0.6-0.6-1.2-0.6-2c0-0.7,0.2-1.2,0.5-1.8s0.8-0.9,1.3-1.3c0.5-0.3,1-0.6,1.7-0.7s1.3-0.3,2.1-0.3c0.1,0,0.1,0,0.2,0
			s0.1,0,0.2,0l0.1,1h-0.1h-0.1c-0.6,0-1.1,0-1.5,0.1s-0.8,0.2-1.2,0.4c-0.6,0.2-0.9,0.6-1.2,1c-0.3,0.5-0.5,0.9-0.5,1.5
			c0,0.7,0.2,1.1,0.5,1.6c0.3,0.4,0.7,0.8,1.1,0.9c0.4,0.2,0.8,0.3,1.2,0.4c0.5,0.1,0.9,0.1,1.5,0.1C123.8,9.8,123.9,9.8,124,9.9
			C123.8,9.9,123.9,9.9,124,9.9z"/>
		<path d="M131.6,6.4c0,1.3,0,2.3,0,3.2c0,0.8,0,1.3,0,1.3c-0.1,0-0.3,0-0.8,0.1c-0.5,0-1,0.1-1.7,0.1c-0.5,0-0.8,0-1.3-0.1
			s-0.8-0.2-1.1-0.4c-0.5-0.2-0.8-0.5-1-0.8c-0.3-0.4-0.4-0.8-0.4-1.2c0-0.5,0.2-0.9,0.5-1.3s0.8-0.7,1.3-0.9
			c0.4-0.2,0.8-0.3,1.4-0.4c0.6-0.1,1.2-0.2,2-0.3c0-0.4-0.1-0.8-0.3-1c-0.2-0.3-0.5-0.5-0.8-0.6c-0.2-0.1-0.5-0.2-0.8-0.2
			s-0.7-0.1-1-0.1s-0.5,0-0.6,0s-0.4,0-0.7,0l0.1-1c0.1,0,0.3,0,0.5,0c0.3,0,0.6,0,0.9,0c0.7,0,1.2,0.1,1.7,0.2
			c0.5,0.1,0.9,0.4,1.2,0.7s0.6,0.7,0.7,1C131.5,5.1,131.6,5.6,131.6,6.4z M130.4,8.3c0-0.2,0-0.4,0-0.7s0-0.6,0-0.9
			c-0.2,0-0.7,0.1-1.2,0.1c-0.6,0.1-1,0.2-1.5,0.4c-0.3,0.1-0.6,0.3-0.8,0.5c-0.2,0.2-0.4,0.5-0.4,0.8s0.1,0.7,0.3,0.8
			s0.5,0.4,0.8,0.5s0.6,0.2,0.8,0.2s0.7,0.1,1,0.1c0.1,0,0.3,0,0.4,0s0.3,0,0.5,0c0,0,0-0.2,0-0.6C130.4,9.3,130.4,8.8,130.4,8.3z"
			/>
		<path d="M141,11h-1.2c0-0.2,0-0.7,0-1.5s0-1.3,0-1.5c0-0.3,0-0.7,0-1.2s0-0.9,0-1.2c0-0.6-0.1-1-0.4-1.3c-0.2-0.3-0.6-0.4-1.1-0.4
			c-0.3,0-0.8,0.1-1.2,0.3c-0.5,0.2-0.9,0.5-1.4,0.8c0,0.1,0,0.4,0,0.9s0,1.1,0,1.6c0,0.7,0,1.3,0,2.3c0,0.8,0,1.3,0,1.4h-1.2
			c0,0,0-0.4,0-0.9c0-0.7,0-1.5,0-2.7c0-0.6,0-1.2,0-2s0-1.5,0-2.3h1.2V4l0,0c0.8-0.5,1.3-0.8,1.9-0.8c0.5-0.2,0.9-0.3,1.2-0.3
			c0.7,0,1.2,0.2,1.6,0.7s0.7,1,0.7,1.8c0,0.7,0,1.2,0,1.7s0,0.8,0,1.2c0,0.5,0,1.1,0,1.8C141,10.5,141,10.9,141,11z"/>
		<path d="M79.4,24.6c0,0.6-0.1,1-0.4,1.4s-0.6,0.8-1,1s-0.8,0.4-1.4,0.6s-1.1,0.2-1.7,0.2c-0.4,0-0.7,0-1,0s-0.6,0-0.7,0l-0.1-1.2
			c0.1,0,0.3,0,0.7,0.1c0.4,0,0.8,0,1.2,0c0.3,0,0.7,0,1.1-0.1s0.8-0.2,1-0.3c0.3-0.2,0.6-0.4,0.8-0.6c0.2-0.2,0.3-0.5,0.3-0.8
			s-0.1-0.7-0.3-0.9c-0.2-0.3-0.5-0.5-0.8-0.8c-0.3-0.2-0.6-0.3-0.9-0.5s-0.8-0.4-1-0.6c-0.6-0.3-0.9-0.7-1.1-1
			c-0.2-0.4-0.4-0.8-0.4-1.3s0.1-0.9,0.3-1.2c0.2-0.4,0.5-0.7,0.8-0.9c0.4-0.3,0.8-0.5,1.2-0.6s1-0.2,1.6-0.2c0.4,0,0.7,0,1,0
			c0.4,0,0.6,0,0.6,0l0.1,1.1c-0.1,0-0.3,0-0.6-0.1c-0.4,0-0.8-0.1-1.2-0.1c-0.3,0-0.6,0-0.9,0.1s-0.6,0.2-0.8,0.3
			c-0.2,0.1-0.4,0.3-0.6,0.5S75,19.2,75,19.5s0.1,0.5,0.2,0.8c0.2,0.3,0.5,0.5,0.8,0.8c0.2,0.1,0.5,0.3,0.8,0.5s0.8,0.4,1,0.6
			c0.6,0.3,0.9,0.7,1.2,1C79.2,23.6,79.4,24.1,79.4,24.6z"/>
		<path d="M88.8,23.5c0,0.7-0.1,1.2-0.4,1.8c-0.2,0.6-0.6,1-0.9,1.4c-0.4,0.4-0.8,0.6-1.1,0.8c-0.5,0.2-0.9,0.3-1.4,0.3
			s-0.9-0.1-1.4-0.3c-0.5-0.2-0.8-0.5-1.2-0.8c-0.4-0.4-0.8-0.8-0.9-1.4c-0.2-0.6-0.4-1.1-0.4-1.8c0-0.6,0.1-1.1,0.3-1.7
			c0.2-0.5,0.5-0.9,0.8-1.4c0.4-0.4,0.8-0.7,1.2-0.8c0.5-0.2,0.9-0.3,1.5-0.3s1,0.1,1.5,0.3c0.5,0.2,0.8,0.5,1.2,0.8
			c0.4,0.4,0.7,0.8,0.9,1.4C88.7,22.4,88.8,23,88.8,23.5z M87.6,23.6c0-0.5-0.1-0.9-0.3-1.4c-0.2-0.5-0.4-0.8-0.8-1.2
			c-0.2-0.2-0.5-0.4-0.8-0.5s-0.6-0.2-0.8-0.2c-0.4,0-0.7,0.1-0.9,0.2c-0.3,0.1-0.6,0.3-0.8,0.6c-0.3,0.3-0.5,0.7-0.7,1.1
			c-0.2,0.5-0.3,0.9-0.3,1.4c0,0.6,0.1,1,0.3,1.5c0.2,0.5,0.5,0.8,0.8,1.1c0.2,0.2,0.5,0.3,0.8,0.5c0.3,0.1,0.6,0.2,0.8,0.2
			c0.4,0,0.7-0.1,0.9-0.2c0.3-0.1,0.6-0.3,0.8-0.5c0.3-0.3,0.6-0.7,0.7-1.1C87.4,24.7,87.6,24.1,87.6,23.6z"/>
		<path d="M96.3,26.5l-0.1,1c0,0-0.1,0-0.2,0s-0.2,0-0.2,0c-0.7,0-1.3-0.1-1.9-0.2s-1.1-0.3-1.6-0.6c-0.7-0.4-1.1-0.8-1.5-1.4
			s-0.6-1.2-0.6-2c0-0.7,0.2-1.2,0.5-1.8s0.8-0.9,1.3-1.3c0.5-0.3,1-0.6,1.7-0.7s1.3-0.3,2.1-0.3c0.1,0,0.1,0,0.2,0s0.1,0,0.2,0
			l0.1,1h-0.1h-0.1c-0.6,0-1.1,0-1.5,0.1s-0.8,0.2-1.2,0.4c-0.6,0.2-0.9,0.6-1.2,1c-0.3,0.5-0.5,0.9-0.5,1.5c0,0.7,0.2,1.1,0.5,1.6
			c0.3,0.4,0.7,0.8,1.1,0.9c0.4,0.2,0.8,0.3,1.2,0.4c0.5,0.1,0.9,0.1,1.5,0.1C96.2,26.5,96.2,26.5,96.3,26.5
			C96.4,26.5,96.2,26.5,96.3,26.5z"/>
		<path d="M99.8,18h-1.4v-1.4h1.4V18z M99.7,27.6h-1.2c0-0.1,0-0.6,0-1.6c0-0.9,0-1.8,0-2.3c0-0.6,0-1.1,0-1.8c0-0.7,0-1.4,0-2.3
			h1.2c0,0.8,0,1.5,0,2.2s0,1.2,0,1.8c0,1.2,0,2.3,0,3C99.7,27.2,99.7,27.6,99.7,27.6z"/>
		<path d="M108.9,23.3h-5.7c0,0.6,0.1,1,0.4,1.5c0.2,0.5,0.6,0.8,1,1.1c0.3,0.2,0.7,0.4,1,0.5s0.8,0.2,1.4,0.2c0.3,0,0.6,0,0.8,0
			c0.3,0,0.4,0,0.5,0l-0.2,1c0,0-0.2,0-0.4,0c-0.3,0-0.6,0-0.8,0c-0.8,0-1.6-0.1-2.3-0.4c-0.7-0.2-1.1-0.6-1.5-0.9s-0.7-0.8-0.8-1.2
			c-0.3-0.5-0.4-1-0.4-1.7c0-0.6,0.1-1.1,0.3-1.6c0.2-0.5,0.5-0.9,0.8-1.3s0.7-0.7,1.1-0.8c0.5-0.2,0.9-0.3,1.4-0.3s0.9,0.1,1.3,0.2
			c0.4,0.2,0.8,0.4,1,0.7c0.3,0.4,0.6,0.8,0.8,1.2C108.8,22,108.9,22.6,108.9,23.3z M107.7,22.4c-0.1-0.7-0.3-1.1-0.7-1.5
			c-0.4-0.4-0.8-0.6-1.4-0.6s-1.1,0.2-1.5,0.6s-0.7,0.8-0.8,1.5H107.7z"/>
		<path d="M115.4,26.6l-0.2,1c0,0-0.1,0-0.3,0c-0.2,0-0.3,0-0.4,0c-1.1,0-1.9-0.2-2.4-0.7c-0.6-0.5-0.8-1.1-0.8-2.1
			c0-0.6,0-1.2,0-1.9c0-0.7,0-1.5,0-2.5H110v-0.9h1.4v-1.9h1.1v1.9h2.8v0.9h-2.8c0,0.1,0,0.5,0,1s0,0.9,0,1.2c0,0.2,0,0.5,0,0.8
			s0,0.8,0,1.1c0,0.7,0.2,1.2,0.6,1.5s0.9,0.5,1.7,0.5c0.1,0,0.2,0,0.4,0C115.3,26.6,115.4,26.6,115.4,26.6z"/>
		<path d="M124.2,19.9c-1,2.3-2.2,4.7-3.3,7.2s-1.8,3.9-1.8,4.1l-1.1-0.4l1.6-3.4c0-0.1-0.4-0.8-1-2.3c-0.7-1.4-1.4-3.2-2.3-5.2
			l1.2-0.5c0.6,1.5,1.2,2.9,1.8,4.3c0.6,1.4,0.9,2.2,0.9,2.3l0,0c0-0.1,0.4-0.8,0.9-2.1c0.6-1.3,1.2-2.8,1.9-4.5L124.2,19.9z"/>
		<path d="M134.7,17c0,0-0.1,0-0.2,0s-0.2,0-0.2,0c-0.5,0-0.8,0-1.2,0.1c-0.3,0.1-0.6,0.3-0.8,0.5s-0.3,0.4-0.4,0.7
			c-0.1,0.3-0.1,0.6-0.1,0.9v0.4h2.7v0.9h-2.7c0,1.7,0,3.3,0,4.8s0,2.3,0,2.3h-1.2c0-0.1,0-0.8,0-2.3c0-1.4,0-3,0-4.9H129v-0.9h1.6
			v-0.4c0-0.5,0.1-0.8,0.2-1.2s0.4-0.8,0.7-1c0.3-0.3,0.7-0.5,1-0.7c0.5-0.2,0.9-0.3,1.6-0.3c0.1,0,0.2,0,0.3,0s0.2,0,0.2,0
			L134.7,17z"/>
		<path d="M143.2,23.5c0,0.7-0.1,1.2-0.4,1.8c-0.2,0.6-0.6,1-0.9,1.4c-0.4,0.4-0.8,0.6-1.1,0.8c-0.5,0.2-0.9,0.3-1.4,0.3
			s-0.9-0.1-1.4-0.3c-0.5-0.2-0.8-0.5-1.2-0.8c-0.4-0.4-0.8-0.8-0.9-1.4c-0.2-0.6-0.4-1.1-0.4-1.8c0-0.6,0.1-1.1,0.3-1.7
			c0.2-0.5,0.5-0.9,0.8-1.4c0.4-0.4,0.8-0.7,1.2-0.8c0.5-0.2,0.9-0.3,1.5-0.3s1,0.1,1.5,0.3s0.8,0.5,1.2,0.8
			c0.4,0.4,0.7,0.8,0.9,1.4C143.1,22.4,143.2,23,143.2,23.5z M141.9,23.6c0-0.5-0.1-0.9-0.3-1.4s-0.4-0.8-0.8-1.2
			c-0.2-0.2-0.5-0.4-0.8-0.5s-0.6-0.2-0.8-0.2c-0.4,0-0.7,0.1-0.9,0.2s-0.6,0.3-0.8,0.6c-0.3,0.3-0.5,0.7-0.7,1.1
			c-0.2,0.5-0.3,0.9-0.3,1.4c0,0.6,0.1,1,0.3,1.5s0.5,0.8,0.8,1.1c0.2,0.2,0.5,0.3,0.8,0.5c0.3,0.1,0.6,0.2,0.8,0.2
			c0.4,0,0.7-0.1,0.9-0.2c0.3-0.1,0.6-0.3,0.8-0.5c0.3-0.3,0.6-0.7,0.7-1.1C141.7,24.7,141.9,24.1,141.9,23.6z"/>
		<path d="M150,20.5c-0.3,0.1-0.8,0.2-1.3,0.5c-0.6,0.2-1.3,0.6-2.1,0.8c0,0.1,0,0.3,0,0.8s0,0.9,0,1.3c0,0.7,0,1.4,0,2.3
			c0,0.8,0,1.3,0,1.4h-1.2c0-0.1,0-0.4,0-0.8s0-1.4,0-2.5c0-0.5,0-1.2,0-2.1c0-0.8,0-1.7,0-2.5h1.2v1.2l0,0c0.6-0.4,1.2-0.7,1.8-0.8
			c0.6-0.2,1-0.4,1.4-0.5L150,20.5z"/>
		<path d="M83.1,33.6c0,0.8,0,1.8,0,2.8s0,1.9,0,2.3c0,1.5,0,2.7,0,3.6c0,0.8,0,1.3,0,1.4l-1,0.5c-1.6-2.2-3.1-4.1-4.5-5.8
			c-1.4-1.8-2.2-2.7-2.4-3l0,0c0,1.4,0,3.2,0,5.3s0,3.3,0,3.6H74c0-0.1,0-0.6,0-1.4c0-0.8,0-2,0-3.4c0-0.6,0-1.3,0-2.3s0-2,0-3
			l1.2-0.6c0.1,0.1,0.9,1.1,2.4,3.1s3,3.8,4.3,5.3l0,0c0-0.8,0-2.2,0-4.1s0-3.4,0-4.3C82,33.6,83.1,33.6,83.1,33.6z"/>
		<path d="M93,44.3h-1.2v-0.9l0,0c-0.4,0.3-0.8,0.5-1.4,0.8s-1.1,0.4-1.6,0.4c-0.8,0-1.3-0.2-1.7-0.7s-0.7-1-0.7-1.8
			c0-0.5,0-0.9,0-1.5s0-1,0-1.3c0-0.5,0-1,0-1.8s0-1.1,0-1.2h1.2c0,0.1,0,0.5,0,1.1s0,1.2,0,1.7c0,0.4,0,0.8,0,1.4s0,0.9,0,1.1
			c0,0.7,0.1,1.1,0.3,1.4c0.2,0.3,0.6,0.5,1,0.5c0.5,0,1-0.1,1.6-0.4c0.6-0.3,0.9-0.5,1.2-0.7c0-0.1,0-0.4,0-0.8c0-0.6,0-1.1,0-2
			c0-0.6,0-1.2,0-2s0-1.2,0-1.2H93c0,0.1,0,0.4,0,0.9s0,1.4,0,2.6c0,0.7,0,1.3,0,1.8C93,42.2,93,43,93,44.3z"/>
		<path d="M100.3,43.2l-0.2,1c0,0-0.1,0-0.3,0c-0.2,0-0.3,0-0.4,0c-1.1,0-1.9-0.2-2.4-0.7s-0.8-1.1-0.8-2.1c0-0.6,0-1.2,0-1.9
			s0-1.5,0-2.5h-1.3v-0.9h1.4v-1.9h1.1v1.9h2.8V37h-2.8c0,0.1,0,0.5,0,1s0,0.9,0,1.2c0,0.2,0,0.5,0,0.8s0,0.8,0,1.1
			c0,0.7,0.2,1.2,0.6,1.5s0.9,0.5,1.7,0.5c0.1,0,0.2,0,0.4,0C100.1,43.2,100.2,43.2,100.3,43.2z"/>
		<path d="M106.9,37.1c-0.3,0.1-0.8,0.2-1.3,0.5c-0.6,0.2-1.3,0.6-2.1,0.8c0,0.1,0,0.3,0,0.8s0,0.9,0,1.3c0,0.7,0,1.4,0,2.3
			s0,1.3,0,1.4h-1.2c0-0.1,0-0.4,0-0.8s0-1.4,0-2.5c0-0.5,0-1.2,0-2.1c0-0.8,0-1.7,0-2.5h1.2v1.2l0,0c0.6-0.4,1.2-0.7,1.8-0.8
			c0.6-0.3,1-0.4,1.4-0.5L106.9,37.1z"/>
		<path d="M109.9,34.7h-1.4v-1.4h1.4V34.7z M109.8,44.3h-1.2c0-0.1,0-0.6,0-1.6c0-0.9,0-1.8,0-2.3s0-1.1,0-1.8s0-1.4,0-2.3h1.2
			c0,0.8,0,1.5,0,2.2s0,1.2,0,1.8c0,1.2,0,2.3,0,3C109.8,43.8,109.8,44.2,109.8,44.3z"/>
		<path d="M117.2,43.2l-0.2,1c0,0-0.1,0-0.3,0c-0.2,0-0.3,0-0.4,0c-1.1,0-1.9-0.2-2.4-0.7s-0.8-1.1-0.8-2.1c0-0.6,0-1.2,0-1.9
			s0-1.5,0-2.5h-1.3v-0.9h1.4v-1.9h1.1v1.9h2.8V37h-2.8c0,0.1,0,0.5,0,1s0,0.9,0,1.2c0,0.2,0,0.5,0,0.8s0,0.8,0,1.1
			c0,0.7,0.2,1.2,0.6,1.5s0.9,0.5,1.7,0.5c0.1,0,0.2,0,0.4,0C117.1,43.2,117.2,43.2,117.2,43.2z"/>
		<path d="M120.6,34.7h-1.4v-1.4h1.4V34.7z M120.5,44.3h-1.2c0-0.1,0-0.6,0-1.6c0-0.9,0-1.8,0-2.3s0-1.1,0-1.8s0-1.4,0-2.3h1.2
			c0,0.8,0,1.5,0,2.2s0,1.2,0,1.8c0,1.2,0,2.3,0,3C120.5,43.8,120.5,44.2,120.5,44.3z"/>
		<path d="M130.6,40.2c0,0.7-0.1,1.2-0.4,1.8c-0.2,0.6-0.6,1-0.9,1.4s-0.8,0.6-1.1,0.8c-0.5,0.2-0.9,0.3-1.4,0.3s-0.9-0.1-1.4-0.3
			s-0.8-0.5-1.2-0.8c-0.4-0.4-0.8-0.8-0.9-1.4s-0.4-1.1-0.4-1.8c0-0.6,0.1-1.1,0.3-1.7c0.2-0.5,0.5-0.9,0.8-1.4
			c0.4-0.4,0.8-0.7,1.2-0.8c0.5-0.2,0.9-0.3,1.5-0.3s1,0.1,1.5,0.3s0.8,0.5,1.2,0.8c0.4,0.4,0.7,0.8,0.9,1.4
			C130.5,39,130.6,39.6,130.6,40.2z M129.3,40.2c0-0.5-0.1-0.9-0.3-1.4s-0.4-0.8-0.8-1.2c-0.2-0.2-0.5-0.4-0.8-0.5s-0.6-0.2-0.8-0.2
			c-0.4,0-0.7,0.1-0.9,0.2c-0.3,0.1-0.6,0.3-0.8,0.6c-0.3,0.3-0.5,0.7-0.7,1.1c-0.2,0.5-0.3,0.9-0.3,1.4c0,0.6,0.1,1,0.3,1.5
			c0.2,0.5,0.5,0.8,0.8,1.1c0.2,0.2,0.5,0.3,0.8,0.5c0.3,0.1,0.6,0.2,0.8,0.2c0.4,0,0.7-0.1,0.9-0.2c0.3-0.1,0.6-0.3,0.8-0.5
			c0.3-0.3,0.6-0.7,0.7-1.1C129.3,41.2,129.3,40.7,129.3,40.2z"/>
		<path d="M139.4,44.3h-1.2c0-0.2,0-0.7,0-1.5s0-1.3,0-1.5c0-0.3,0-0.7,0-1.2s0-0.9,0-1.2c0-0.6-0.1-1-0.4-1.3
			c-0.2-0.3-0.6-0.4-1.1-0.4c-0.3,0-0.8,0.1-1.2,0.3c-0.5,0.2-0.9,0.5-1.4,0.8c0,0.1,0,0.4,0,0.9s0,1.1,0,1.6c0,0.7,0,1.3,0,2.3
			c0,0.8,0,1.3,0,1.4h-1.2c0,0,0-0.4,0-0.9c0-0.7,0-1.5,0-2.7c0-0.6,0-1.2,0-2s0-1.5,0-2.3h1.2v0.9l0,0c0.8-0.5,1.3-0.8,1.9-0.8
			c0.5-0.2,0.9-0.3,1.2-0.3c0.7,0,1.2,0.2,1.6,0.7s0.7,1,0.7,1.8c0,0.7,0,1.2,0,1.7s0,0.8,0,1.2c0,0.5,0,1.1,0,1.8
			C139.3,43.8,139.4,44.2,139.4,44.3z"/>
	</g>
	<g>
		<path class="st0" d="M45.7,81.7c-0.3-0.2-0.5-0.1-0.8-0.1c-4.4-0.5-8.5-1.8-12.6-3.7c-4.1-1.9-7.9-4.3-11.5-7
			c-0.1-0.1-0.2-0.1-0.2-0.2c0,0,0,0,0.1-0.1c0.8,0.4,1.4,0.8,2.2,1.1c3.2,1.6,6.6,2.9,10.1,3.8c1.4,0.3,2.8,0.6,4.3,0.8
			c1.4,0.2,2.8,0.2,4.3,0.2c5.4-0.2,10.4-1.8,14.8-5.1c3-2.3,5.3-5.1,7.2-8.3c1.8-3.3,3-6.8,3.8-10.4c0.3-1.6,0.6-3.3,0.7-5
			c0.2-1.8,0.2-3.7,0.2-5.4c-0.1-1.7-0.2-3.4-0.4-5.2c0-0.1,0-0.2,0-0.3c0.1,0,0.1,0.1,0.1,0.2c0.5,1.7,0.8,3.4,1.1,5.2
			c0.3,1.4,0.5,2.8,0.7,4.3c0.1,0.8,0.2,1.6,0.2,2.3c0.1,0.7,0.1,1.3,0.1,2c0,0,0,0.1,0.1,0.1c0,1.7,0,3.5,0,5.2
			c-0.1,0-0.1,0.1-0.1,0.2c-0.1,1.3-0.2,2.6-0.4,3.9c-0.3,1.8-0.7,3.6-1.1,5.3c-1,3.4-2.5,6.5-4.8,9.2c-2.1,2.4-4.5,4.3-7.4,5.5
			c-1.9,0.8-3.8,1.3-5.9,1.5c-0.3,0-0.6,0-0.8,0.1C48.1,81.7,46.9,81.7,45.7,81.7z"/>
		<path class="st1" d="M23.8,0.8c0.3,0.1,0.6,0.1,0.8,0.1c4.8,0.5,9.2,2,13.5,3.9C42,6.8,45.6,9,49,11.6c0.1,0.1,0.2,0.1,0.2,0.3
			c-0.1,0.1-0.1,0-0.2-0.1c-4-2.3-8.3-3.9-12.8-4.9c-2-0.4-3.9-0.7-5.9-0.8c-3.2-0.1-6.4,0.3-9.5,1.3c-3.2,1-6.1,2.7-8.6,4.9
			c-3.5,3-5.8,6.8-7.5,10.9c-1,2.5-1.7,5.2-2.2,7.9c-0.4,2.1-0.6,4.1-0.7,6.3c-0.1,1.9-0.1,3.8,0.1,5.7C2,43.9,2,44.8,2.2,45.6
			c0,0,0,0.1,0,0.2c-0.1-0.1-0.1-0.2-0.1-0.2c-0.6-2.4-1.1-5-1.5-7.4c-0.3-1.8-0.5-3.7-0.6-5.4c0-0.3,0-0.6-0.1-0.8
			c0-1.8,0-3.6,0-5.3C0,26.7,0,26.6,0,26.5c0-0.5,0.1-1,0.1-1.5c0.2-2.3,0.6-4.5,1.1-6.8C2,15,3.2,12,5,9.4c2-2.8,4.5-5.1,7.7-6.6
			c2.2-1,4.5-1.7,6.9-1.9c0.3,0,0.6,0,0.8-0.1C21.7,0.8,22.8,0.8,23.8,0.8z"/>
		<path class="st2" d="M45.1,29.8c0,7.9,0,15.9,0,23.8c0.5,0,1,0,1.5,0c0,0.7,0,1.2,0,1.9c-1.8,0-3.7,0-5.5,0c0-0.6,0-1.2,0-1.8
			c0.6,0,1.1,0,1.7,0c0-11.3,0-22.4,0-33.7c-0.6,0-1,0-1.7,0c0-0.7,0-1.2,0-1.9c1.7,0,3.4,0,5.2,0c2.1,7.1,4.2,14.3,6.3,21.5l0,0
			c0-6.5,0-13,0-19.6c-0.5,0-0.8,0-1.3,0c0-0.7,0-1.2,0-1.9c1.7,0,3.5,0,5.2,0c0,0.6,0,1.2,0,1.8c-0.5,0-1,0-1.5,0
			c0,11.8,0,23.6,0,35.5c-0.8,0-1.6,0-2.3,0C50.1,46.9,47.7,38.4,45.1,29.8L45.1,29.8z"/>
		<path class="st2" d="M26,42.4c1.2,0,2.4,0,3.7,0c0.1,0.1,0,0.3,0,0.4c0,3.2,0,6.4,0,9.5c0,0.2,0,0.5,0.1,0.7
			c0.2,0.8,0.7,1.1,1.4,1.3c0.4,0.1,0.8,0.1,1,0c0.7-0.2,1.1-0.7,1.2-1.4c0.1-0.3,0.1-0.6,0.1-0.8c0-3.2,0-6.5,0-9.7
			c0-0.7-0.2-1.2-0.6-1.8c-2-2.8-3.8-5.6-5.7-8.4c-0.6-0.8-0.8-1.7-0.8-2.6c0-2.3,0-4.7,0-7s1.4-4,3.6-4.6c2.1-0.6,4-0.4,5.9,0.8
			c0.1,0.1,0.2,0.1,0.4,0.2c0-0.2,0-0.4,0-0.7c0.6,0,1.2,0,1.8,0c0,4,0,8.1,0,12.2c-1.2,0-2.4,0-3.7,0c-0.1-0.1,0-0.3,0-0.4
			c0-2.7,0-5.3,0-8.1c0-0.4,0-0.8-0.1-1c-0.2-0.9-0.7-1.4-1.7-1.4c-0.2,0-0.4,0-0.6,0c-0.5,0.1-0.8,0.4-0.9,0.8s-0.2,0.8-0.2,1.2
			c0,2.3,0,4.6,0,6.8c0,0.6,0.2,1.1,0.6,1.6c1.8,2.6,3.6,5.3,5.4,7.9c0.5,0.8,0.9,1.5,1.1,2.3c0.1,0.6,0.2,1.2,0.2,1.8
			c0,3.2,0,6.4,0,9.5c0,1.1-0.3,2.2-1.1,3c-0.7,0.8-1.5,1.2-2.4,1.4c-2.3,0.6-4.5,0.5-6.5-0.8c-0.1,0-0.1-0.1-0.2-0.1
			c0,0.2,0,0.4,0,0.6c-0.6,0-1.1,0-1.7,0C26,51.1,26,46.8,26,42.4z"/>
		<path class="st3" d="M12.9,41c-0.5,4.2-0.9,8.4-1.4,12.7c0.5,0,0.9,0,1.5,0c0,0.7,0,1.2,0,1.9c-1.8,0-3.6,0-5.3,0
			c0-0.6,0-1.2,0-1.8c0.6,0,1,0,1.6,0c1.2-12,2.4-23.8,3.7-35.6c1.4,0,2.7,0,4.1,0C19,30,20.9,41.8,22.9,53.7c0.5,0,0.8,0,1.2,0
			c0,0.7,0,1.2,0,1.9c-2.3,0-4.7,0-7.1,0c0-0.6,0-1.2,0-1.8c0.5,0,0.9,0,1.4,0c-0.7-4.2-1.4-8.4-2.1-12.7C15.2,41,14.1,41,12.9,41z
			 M14.4,28L14.4,28c-0.5,3.7-0.8,7.3-1.3,11c1,0,2,0,3,0C15.5,35.4,14.9,31.7,14.4,28z"/>
		<path class="st4" d="M45.3,62.9c-0.8-0.6-1-1.3-0.8-2.2c0.3-0.8,1.1-1.3,2-1.1c0.8,0.2,1.3,1,1.2,1.9c-0.1,0.6-0.4,1-0.8,1.4
			c0.2,0.1,0.3,0.2,0.4,0.4c0.7,0.7,0.8,1.8,0.4,2.5c-0.4,0.8-1.3,1.1-2.2,0.8c-0.8-0.2-1.3-0.9-1.2-1.9c0-0.7,0.3-1.2,0.8-1.7
			C45.2,63,45.3,62.9,45.3,62.9z M46.1,63.3c-0.7,0.5-0.8,1.3-0.6,2.1c0.2,0.5,0.6,0.6,0.9,0.4c0.2-0.1,0.3-0.3,0.4-0.5
			C47,64.5,46.9,63.8,46.1,63.3z M46.2,62.5c0.5-0.4,0.7-1,0.5-1.6c-0.1-0.3-0.3-0.5-0.6-0.5s-0.5,0.2-0.6,0.5
			C45.4,61.4,45.7,62,46.2,62.5z"/>
		<path class="st4" d="M38.8,63.6c-0.3,0.3-0.6,0.4-0.8,0.5c-0.6,0.1-1-0.2-1.3-0.7c-0.6-0.9-0.5-2.3,0.3-3.2c0.8-0.8,2-0.8,2.6,0.2
			c0.3,0.5,0.4,0.9,0.4,1.4c0.1,1.2,0,2.4-0.7,3.5c-0.6,0.9-1.3,1.4-2.4,1.4c-0.1-0.3,0-0.7,0-0.9c0.6,0,1.1-0.2,1.5-0.7
			C38.6,64.6,38.7,64.2,38.8,63.6z M38.8,62.1c0-0.4,0-0.8-0.2-1.2c-0.1-0.3-0.3-0.5-0.6-0.5s-0.5,0.2-0.6,0.5
			c-0.2,0.7-0.2,1.2,0,1.9c0.1,0.3,0.4,0.5,0.7,0.5s0.6-0.3,0.7-0.6C38.8,62.5,38.8,62.3,38.8,62.1z"/>
		<path class="st4" d="M18.5,59.4c0.9,0,1.9,0,2.8,0c0,0.3,0,0.7,0,0.9c-0.6,0-1.1,0-1.7,0c0,0.7,0,1.3,0,2c0.5,0,1,0,1.6,0
			c0,0.4,0,0.7,0,0.9c-0.5,0-1,0-1.6,0c0,0.8,0,1.5,0,2.3c0.6,0,1.2,0,1.8,0c0,0.4,0,0.7,0,1c-0.9,0-2,0-2.9,0
			C18.5,64.2,18.5,61.8,18.5,59.4z"/>
		<path class="st4" d="M25,59.6c0,0.3-0.1,0.7-0.2,0.9c-0.2-0.1-0.4-0.2-0.6-0.2c-0.5-0.1-0.8,0.1-1,0.5s-0.1,0.8,0.2,1.1
			c0.2,0.2,0.5,0.4,0.8,0.6c0.7,0.5,1,1,1.1,1.9c0.1,1.2-0.7,2.2-2,2.3c-0.5,0-0.9,0-1.4-0.3c0.1-0.4,0.1-0.7,0.1-1
			c0.3,0.1,0.7,0.3,0.9,0.3c0.5,0,0.8-0.1,1-0.5c0.2-0.5,0.2-0.8-0.1-1.2c-0.2-0.3-0.5-0.5-0.8-0.7c-0.4-0.3-0.7-0.6-0.9-0.9
			c-0.5-0.8-0.4-1.8,0.3-2.4C23.1,59.3,24.3,59.2,25,59.6z"/>
		<path class="st4" d="M40.7,60.9c-0.1-0.3-0.2-0.6-0.2-0.8c0.7-0.5,1.4-0.6,2.2-0.3c0.6,0.3,0.8,0.8,0.9,1.3
			c0.1,0.8-0.1,1.6-0.5,2.3c-0.3,0.6-0.8,1.1-1.1,1.7c-0.1,0.1-0.2,0.3-0.3,0.4c0.8,0,1.4,0,2.1,0c0,0.4,0,0.7,0,1
			c-1.1,0-2.3,0-3.4,0c-0.1-0.5,0-0.8,0.3-1.2c0.6-0.8,1.1-1.5,1.6-2.3c0.2-0.5,0.4-0.9,0.4-1.4c0-0.9-0.7-1.3-1.5-0.9
			C41,60.8,40.9,60.8,40.7,60.9z"/>
		<path class="st3" d="M25.5,60.5c0-0.4,0-0.8,0-1c1.1,0,2.3,0,3.5,0c0.1,0.4,0,0.7,0,1c-0.4,0-0.8,0-1.2,0c0,2.1,0,4,0,6.1
			c-0.4,0-0.8,0-1,0c0-2.1,0-4,0-6.1C26.4,60.5,26,60.5,25.5,60.5z"/>
		<path class="st4" d="M32.7,61.4c-0.1,0-0.1-0.1-0.1-0.2c-0.1-0.2-0.1-0.5-0.2-0.8c0.5-0.3,0.9-0.6,1.4-0.8c0.3-0.1,0.7,0,0.9,0
			c0,2.3,0,4.6,0,6.9c-0.4,0.1-0.7,0-1,0c0-2,0-3.8,0-5.8C33.5,61,33.1,61.2,32.7,61.4z"/>
		<path class="st4" d="M30.2,65.9c0,0.5-0.3,0.8-0.7,0.8c-0.4,0-0.7-0.4-0.7-0.8c0-0.5,0.3-0.8,0.7-0.8S30.2,65.4,30.2,65.9z"/>
		<path class="st0" d="M20.5,70.5L20.5,70.5C20.4,70.5,20.4,70.5,20.5,70.5L20.5,70.5z"/>
		<path class="st0" d="M20.5,70.5C20.6,70.5,20.6,70.5,20.5,70.5c0.1,0.1,0.1,0.1,0,0.2C20.5,70.7,20.5,70.6,20.5,70.5
			C20.5,70.6,20.5,70.6,20.5,70.5z"/>
		<path class="st0" d="M20.5,70.6C20.5,70.6,20.4,70.6,20.5,70.6L20.5,70.6C20.5,70.5,20.5,70.5,20.5,70.6L20.5,70.6z"/>
	</g>
	<g>
		<path d="M73.9,59.3C74,59.3,74,59.2,73.9,59.3l1-5.6h-0.8c0-0.2,0.1-0.3,0.1-0.5c0.4,0,0.8,0,1.1,0s2,0,2.3,0c0.4,0,0.7,0,0.8,0
			c-0.1,0.6-0.1,1-0.2,1.6c-0.1,0-0.3,0-0.5,0V54c0-0.1-0.1-0.2-0.2-0.2c-0.3,0-0.9,0-1.8,0c-0.1,0-0.1,0-0.1,0l-0.4,2.5
			c0.6,0,1.1,0,1.6,0c0.2,0,0.3-0.1,0.3-0.2l0.1-0.5c0.2,0,0.3,0,0.5,0c-0.1,0.3-0.1,0.7-0.2,0.9c-0.1,0.3-0.1,0.7-0.2,0.9
			c-0.2,0-0.3,0-0.5,0l0.1-0.5c0-0.2,0-0.2-0.3-0.2c-0.5,0-1,0-1.6,0L74.5,59c0,0.2,0,0.2,0.6,0.2c0.8,0,1.4,0,1.6-0.1
			c0.1,0,0.2-0.1,0.3-0.2l0.5-0.9c0.2,0,0.3,0.1,0.5,0.1c-0.2,0.5-0.4,1-0.6,1.6c-0.6,0-1.8,0-3.2,0c-0.4,0-0.8,0-1.2,0
			c0-0.2,0.1-0.3,0.1-0.5h0.8C73.9,59.2,73.9,59.3,73.9,59.3z"/>
		<path d="M81.1,56.9c0.6-0.7,1.5-1.6,1.7-1.6c0.1,0,0.4,0.3,0.5,0.6c-0.5,0.3-1.1,0.7-2,1.5v0.1c0.3,0.8,0.5,1.1,0.7,1.8
			c0,0.1,0.1,0.1,0.1,0.1c0.1,0,0.4,0,0.7-0.1c0,0.1,0.1,0.3,0.1,0.5C82.5,59.9,82,60,81.5,60c-0.2-0.4-0.5-1.2-0.8-2h-0.1
			c-0.6,0.7-1,1.4-1.2,2c-0.2,0-0.6,0-0.8,0c0.1-0.5,1.1-1.7,2-2.4v-0.1c-0.2-0.4-0.3-0.8-0.6-1.4l-0.8,0.2c0-0.1-0.1-0.3-0.1-0.4
			c0.6-0.2,1.1-0.4,1.1-0.4c0.1,0,0.3,0.1,0.4,0.2C80.8,56,81,56.5,81.1,56.9L81.1,56.9z"/>
		<path d="M84.3,56.1c0.6-0.6,1-0.8,1.7-0.8c0.3,0,0.7,0.1,0.8,0.2c0,0.2-0.3,0.6-0.4,0.7c-0.1,0-0.5-0.3-0.8-0.3
			c-0.4,0-0.7,0.2-0.8,0.5c-0.4,0.5-0.7,1.3-0.7,2s0.3,0.9,0.8,0.9c0.3,0,0.8-0.2,1.2-0.4c0.1,0.1,0.1,0.3,0.1,0.4
			c-0.5,0.2-1.1,0.5-1.6,0.5c-0.7,0-1.3-0.5-1.3-1.3C83.5,57.9,83.7,56.8,84.3,56.1z"/>
		<path d="M88,56.2c0.5-0.6,1-0.8,1.5-0.8c0.8,0,1.1,0.6,1.1,1.1c-0.1,0.3-0.3,0.8-0.6,0.9c-0.6,0.3-1.3,0.4-2.2,0.4
			c-0.1,0.3-0.1,0.6-0.1,0.8c0,0.5,0.3,0.8,0.7,0.8c0.4,0,1-0.2,1.6-0.6c0.1,0.1,0.1,0.3,0.2,0.4c-0.6,0.4-1.3,0.7-2.1,0.7
			c-0.6,0-1.2-0.4-1.2-1.2C87.1,58,87.3,56.9,88,56.2z M88.6,56.3c-0.2,0.2-0.4,0.6-0.5,1c0.6,0,1.1-0.1,1.4-0.3
			c0.3-0.1,0.4-0.3,0.4-0.6s-0.2-0.7-0.6-0.7C89,55.8,88.7,56,88.6,56.3z"/>
		<path d="M91.7,53.3c0-0.2,0-0.3,0-0.5c0.9-0.1,1.5-0.3,1.6-0.3s0.2,0.1,0.3,0.2c-0.5,1.9-1.3,5.3-1.5,6.5v0.1
			c0.2,0,0.5-0.1,0.8-0.2c0,0.2,0,0.3,0.1,0.5c-0.5,0.2-1,0.2-1.4,0.2c0,0-0.3-0.2-0.3-0.3c0.3-1,1.1-5,1.4-6.3L91.7,53.3z"/>
		<path d="M94.2,53.3c0-0.2,0-0.3,0-0.5c0.9-0.1,1.5-0.3,1.6-0.3s0.2,0.1,0.3,0.2c-0.5,1.9-1.3,5.3-1.5,6.5v0.1
			c0.2,0,0.5-0.1,0.8-0.2c0,0.2,0,0.3,0.1,0.5c-0.5,0.2-1,0.2-1.4,0.2c0,0-0.3-0.2-0.4-0.3c0.3-1,1.1-5,1.5-6.3L94.2,53.3z"/>
		<path d="M97.2,56.2c0.5-0.6,1-0.8,1.5-0.8c0.8,0,1.1,0.6,1.1,1.1c-0.1,0.3-0.3,0.8-0.6,0.9c-0.6,0.3-1.3,0.4-2.2,0.4
			c0,0.3,0,0.5,0,0.7c0,0.5,0.3,0.8,0.7,0.8s1-0.2,1.6-0.6c0.1,0.1,0.1,0.3,0.2,0.4c-0.6,0.4-1.3,0.7-2.1,0.7
			c-0.6,0-1.2-0.4-1.2-1.2C96.2,58,96.5,56.9,97.2,56.2z M97.7,56.3c-0.2,0.2-0.4,0.6-0.5,1c0.6,0,1.1-0.1,1.4-0.3
			c0.3-0.1,0.4-0.3,0.4-0.6s-0.2-0.7-0.6-0.7C98.2,55.8,97.9,56,97.7,56.3z"/>
		<path d="M100.6,56.1c0-0.2,0-0.3,0-0.5c0.7-0.1,1.2-0.3,1.3-0.3c0.1,0,0.2,0.1,0.3,0.2c-0.1,0.3-0.2,0.7-0.3,1.1h0.1
			c0.8-0.9,1.7-1.3,2.1-1.3c0.3,0,0.6,0.3,0.7,0.6c0.1,0.1,0.1,0.2,0.1,0.3c0,0.5-0.4,1.8-0.8,3.1v0.1c0.1,0,0.4-0.1,0.8-0.2
			c0,0.2,0.1,0.3,0.1,0.5c-0.4,0.2-0.9,0.3-1.3,0.3c-0.1,0-0.3-0.2-0.3-0.3c0.2-0.6,0.5-1.6,0.7-2.1c0.1-0.3,0.2-0.8,0.2-1
			s-0.1-0.4-0.3-0.4c-0.7,0-1.8,1.1-2,1.7c-0.1,0.4-0.4,1.6-0.5,2c-0.3,0-0.5,0-0.8,0c0.2-0.9,0.7-2.6,0.8-3.8L100.6,56.1z"/>
		<path d="M106.5,56.1c0.6-0.6,1-0.8,1.7-0.8c0.4,0,0.7,0.1,0.8,0.2c0,0.2-0.3,0.6-0.4,0.7c-0.1,0-0.5-0.3-0.8-0.3
			c-0.4,0-0.7,0.2-0.8,0.5c-0.4,0.5-0.7,1.3-0.7,2s0.3,0.9,0.8,0.9c0.3,0,0.8-0.2,1.2-0.4c0.1,0.1,0.1,0.3,0.1,0.4
			c-0.5,0.2-1.1,0.5-1.6,0.5c-0.7,0-1.3-0.5-1.3-1.3C105.6,57.9,105.8,56.8,106.5,56.1z"/>
		<path d="M110.1,56.2c0.5-0.6,1-0.8,1.5-0.8c0.8,0,1.1,0.6,1.1,1.1c-0.1,0.3-0.3,0.8-0.6,0.9c-0.6,0.3-1.3,0.4-2.2,0.4
			c-0.1,0.3-0.1,0.6-0.1,0.8c0,0.5,0.3,0.8,0.7,0.8c0.4,0,1-0.2,1.6-0.6c0.1,0.1,0.1,0.3,0.2,0.4c-0.6,0.4-1.3,0.7-2.1,0.7
			c-0.6,0-1.2-0.4-1.2-1.2C109.2,58,109.5,56.9,110.1,56.2z M110.7,56.3c-0.2,0.2-0.4,0.6-0.5,1c0.6,0,1.1-0.1,1.4-0.3
			c0.3-0.1,0.4-0.3,0.4-0.6s-0.2-0.7-0.6-0.7C111.2,55.8,110.9,56,110.7,56.3z"/>
		<path d="M115.5,56c0-0.2,0-0.3,0-0.5c0.8-0.1,1.3-0.3,1.4-0.3s0.2,0.2,0.3,0.3c-0.3,1-0.8,3.2-0.8,3.7v0.1c0.2,0,0.5-0.1,0.8-0.2
			c0,0.2,0.1,0.3,0.1,0.5c-0.4,0.1-0.9,0.2-1.3,0.2c-0.1,0-0.3-0.2-0.4-0.3c0.3-1,0.6-2.3,0.8-3.6L115.5,56z M117.5,53.8
			c0,0.3-0.3,0.6-0.6,0.6s-0.6-0.3-0.6-0.5c0-0.3,0.2-0.6,0.6-0.6C117.4,53.4,117.5,53.7,117.5,53.8z"/>
		<path d="M118.1,56.1c0-0.2,0-0.3,0-0.5c0.7-0.1,1.2-0.3,1.3-0.3c0.1,0,0.2,0.1,0.3,0.2c-0.1,0.3-0.2,0.7-0.3,1.1h0.1
			c0.8-0.9,1.7-1.3,2.1-1.3c0.3,0,0.6,0.3,0.7,0.6c0.1,0.1,0.1,0.2,0.1,0.3c0,0.5-0.4,1.8-0.8,3.1v0.1c0.1,0,0.4-0.1,0.8-0.2
			c0,0.2,0.1,0.3,0.1,0.5c-0.4,0.2-0.9,0.3-1.3,0.3c-0.1,0-0.3-0.2-0.3-0.3c0.2-0.6,0.5-1.6,0.7-2.1c0.1-0.3,0.2-0.8,0.2-1
			s-0.1-0.4-0.3-0.4c-0.7,0-1.8,1.1-2,1.7c-0.1,0.4-0.4,1.6-0.5,2c-0.3,0-0.5,0-0.8,0c0.2-0.9,0.7-2.6,0.8-3.8L118.1,56.1z"/>
		<path d="M73.8,70.2C73.9,70.2,73.9,70.2,73.8,70.2l1-5.6H74c0-0.2,0.1-0.3,0.1-0.5c0.5,0,0.9,0,1.4,0c0.4,0.7,1.8,3.8,2.7,5.6h0.1
			c0.3-1.7,0.6-3.4,0.8-5.1h-0.9c0-0.2,0.1-0.3,0.1-0.5c0.4,0,0.8,0,1.3,0c0.4,0,0.7,0,0.9,0c0,0.2-0.1,0.3-0.1,0.5h-0.7
			c0,0,0,0,0,0.1l-1,6.1c-0.1,0-0.4,0.1-0.6,0.1c-0.5-0.8-1.8-3.4-2.8-5.6h-0.1c-0.3,1.7-0.6,3.4-0.8,5.1h1c0,0.2-0.1,0.3-0.1,0.5
			c-0.4,0-0.9,0-1.3,0c-0.3,0-0.7,0-0.9,0c0-0.2,0.1-0.3,0.1-0.5L73.8,70.2z"/>
		<path d="M80.8,67.1c0-0.2,0-0.3,0-0.5c0.8-0.1,1.3-0.3,1.4-0.3s0.2,0.2,0.3,0.3c-0.2,0.7-0.5,1.8-0.7,2.3
			c-0.1,0.3-0.2,0.8-0.2,0.9c0,0.3,0.2,0.4,0.3,0.4c0.5,0,1.7-1.1,1.8-1.7c0.1-0.3,0.4-1.6,0.5-2.2c0.3,0,0.5,0,0.8,0
			c-0.1,0.5-0.7,2.9-0.8,3.8v0.1c0.1,0,0.4-0.1,0.8-0.2c0,0.2,0.1,0.3,0.1,0.4c-0.5,0.2-0.9,0.3-1.2,0.3c-0.1,0-0.2-0.2-0.3-0.3
			c0-0.2,0.1-0.6,0.2-1h-0.1c-0.8,0.8-1.4,1.3-1.9,1.3c-0.2,0-0.5-0.2-0.7-0.5C81,70.1,81,69.9,81,69.7c0-0.5,0.4-2,0.7-3L80.8,67.1
			z"/>
		<path d="M87.1,70.3c0.3,0,0.8-0.1,1.1-0.2c0,0.2,0,0.3,0,0.5c-0.6,0.2-1.2,0.3-1.6,0.3c-0.3,0-0.8-0.3-0.8-0.7c0-0.1,0-0.1,0-0.2
			c0-0.3,0.3-1.6,0.4-1.9c0.1-0.4,0.2-0.9,0.3-1.2c-0.2,0-0.6,0-0.8,0c0-0.2,0.1-0.3,0.1-0.5c0.3,0,0.5,0,0.8-0.1c0,0,0.1,0,0.1-0.1
			c0.1-0.3,0.2-0.7,0.3-0.9c0.3-0.1,0.6-0.2,0.7-0.2l0,0c-0.1,0.3-0.2,0.8-0.3,1.1c0.5,0,1,0,1.5,0c0,0.2-0.1,0.4-0.1,0.6
			c-0.5,0-1,0-1.6,0c-0.1,0.3-0.2,0.8-0.3,1.2c-0.1,0.5-0.3,1.4-0.3,1.7C86.7,70.1,86.9,70.3,87.1,70.3z"/>
		<path d="M89.3,67c0-0.2,0-0.3,0-0.5c0.7-0.1,1.2-0.3,1.3-0.3c0.1,0,0.2,0.2,0.3,0.2c-0.1,0.3-0.2,0.7-0.3,1.3h0.1
			c0.6-0.9,1.2-1.5,1.6-1.5c0.2,0,0.4,0.1,0.5,0.2c0,0.3-0.2,0.8-0.4,0.8c-0.1,0-0.3-0.1-0.4-0.1c-0.4,0-1.4,1.1-1.6,2
			c-0.1,0.3-0.3,1.2-0.4,1.6c-0.3,0-0.5,0-0.7,0c0.2-0.8,0.6-2.6,0.8-3.8L89.3,67z"/>
		<path d="M93.1,67c0-0.2,0-0.3,0-0.5c0.8-0.1,1.3-0.3,1.4-0.3s0.2,0.2,0.3,0.3c-0.3,1-0.8,3.2-0.8,3.7v0.1c0.2,0,0.5-0.1,0.8-0.2
			c0,0.2,0.1,0.3,0.1,0.5c-0.4,0.1-0.8,0.2-1.3,0.2c-0.1,0-0.3-0.2-0.4-0.3c0.3-1,0.6-2.3,0.8-3.6L93.1,67z M95.1,64.8
			c0,0.3-0.3,0.6-0.6,0.6S94,65.1,94,64.9c0-0.3,0.2-0.6,0.6-0.6C94.9,64.4,95.1,64.6,95.1,64.8z"/>
		<path d="M97.1,70.3c0.3,0,0.8-0.1,1.1-0.2c0,0.2,0,0.3,0,0.5c-0.6,0.2-1.2,0.3-1.6,0.3c-0.3,0-0.8-0.3-0.8-0.7c0-0.1,0-0.1,0-0.2
			c0-0.3,0.3-1.6,0.4-1.9c0.1-0.4,0.2-0.9,0.3-1.2c-0.2,0-0.6,0-0.8,0c0-0.2,0.1-0.3,0.1-0.5c0.3,0,0.5,0,0.8-0.1c0,0,0.1,0,0.1-0.1
			c0.1-0.3,0.2-0.7,0.3-0.9c0.3-0.1,0.6-0.2,0.7-0.2l0,0c-0.1,0.3-0.2,0.8-0.3,1.1c0.5,0,1,0,1.5,0c0,0.2-0.1,0.4-0.1,0.6
			c-0.5,0-1,0-1.6,0c-0.1,0.3-0.2,0.8-0.3,1.2c-0.1,0.5-0.3,1.4-0.3,1.7C96.6,70.1,96.8,70.3,97.1,70.3z"/>
		<path d="M99.2,67c0-0.2,0-0.3,0-0.5c0.8-0.1,1.3-0.3,1.4-0.3s0.2,0.2,0.3,0.3c-0.3,1-0.8,3.2-0.8,3.7v0.1c0.2,0,0.5-0.1,0.8-0.2
			c0,0.2,0.1,0.3,0.1,0.5c-0.4,0.1-0.8,0.2-1.3,0.2c-0.1,0-0.3-0.2-0.4-0.3c0.3-1,0.6-2.3,0.8-3.6L99.2,67z M101.2,64.8
			c0,0.3-0.3,0.6-0.6,0.6c-0.3,0-0.6-0.3-0.6-0.5c0-0.3,0.2-0.6,0.6-0.6C101.1,64.4,101.2,64.6,101.2,64.8z"/>
		<path d="M104.4,70.3c-0.4,0.4-0.8,0.6-1.4,0.6s-0.8-0.2-1-0.5c-0.2-0.2-0.3-0.6-0.3-0.9c0-1,0.5-2,1-2.5s0.9-0.6,1.4-0.6
			s0.8,0.2,0.9,0.4c0.2,0.2,0.4,0.6,0.4,1.1C105.4,68.7,105.2,69.6,104.4,70.3z M104,69.9c0.4-0.5,0.7-1.3,0.7-2.1
			c0-0.4-0.1-0.6-0.2-0.8c-0.1-0.2-0.3-0.3-0.6-0.3c-0.4,0-0.7,0.2-0.9,0.6c-0.3,0.4-0.6,1.1-0.6,2c0,0.3,0,0.6,0.2,0.8
			c0.1,0.2,0.3,0.3,0.6,0.3C103.5,70.4,103.8,70.2,104,69.9z"/>
		<path d="M106.3,67.1c0-0.2,0-0.3,0-0.5c0.7-0.1,1.2-0.3,1.3-0.3c0.1,0,0.2,0.1,0.3,0.2c-0.1,0.3-0.2,0.7-0.3,1.1h0.1
			c0.8-0.9,1.7-1.3,2.1-1.3c0.3,0,0.6,0.3,0.7,0.6c0.1,0.1,0.1,0.2,0.1,0.3c0,0.5-0.4,1.8-0.8,3.1v0.1c0.1,0,0.4-0.1,0.8-0.2
			c0,0.2,0.1,0.3,0.1,0.5c-0.4,0.2-0.9,0.3-1.3,0.3c-0.1,0-0.3-0.2-0.3-0.3c0.2-0.6,0.5-1.6,0.7-2.1c0.1-0.3,0.2-0.8,0.2-1
			s-0.1-0.4-0.3-0.4c-0.7,0-1.8,1.1-2,1.7c-0.1,0.4-0.4,1.6-0.5,2c-0.3,0-0.5,0-0.8,0c0.2-0.9,0.7-2.6,0.8-3.8L106.3,67.1
			L106.3,67.1z"/>
		<path d="M113.9,70.2C114,70.2,114,70.2,113.9,70.2l1-5.6h-0.8c0-0.2,0.1-0.3,0.1-0.5c0.5,0,1,0,1.6,0c0.8,0,1.2,0,1.6,0.2
			c0.8,0.3,1,0.8,1,1.4c0,0.9-0.8,1.7-1.7,2v0.1c0.5,0.2,0.6,0.8,0.9,1.8c0.3,0.7,0.4,0.8,0.6,0.8h0.6c0,0.2,0,0.3-0.1,0.5
			c-0.2,0-0.5,0-0.7,0s-0.4,0-0.7,0c-0.3-0.5-0.7-1.8-0.8-2.3c-0.2-0.4-0.4-0.6-0.9-0.6c-0.4,0-0.6,0-0.6,0l-0.4,2.3h0.8
			c0,0.2,0,0.3-0.1,0.5c-0.4,0-0.8,0-1.2,0c-0.4,0-0.8,0-1.1,0c0-0.2,0.1-0.3,0.1-0.5L113.9,70.2z M115.2,67.4c0.1,0,0.3,0,0.6,0
			c1.3,0,2-0.8,2-1.6c0-0.8-0.5-1.2-1.4-1.2c-0.4,0-0.6,0-0.7,0L115.2,67.4z"/>
		<path d="M120.5,67.1c0.5-0.6,1-0.8,1.5-0.8c0.8,0,1.1,0.6,1.1,1.1c-0.1,0.3-0.3,0.8-0.6,0.9c-0.6,0.3-1.3,0.4-2.2,0.4
			c-0.1,0.3-0.1,0.6-0.1,0.8c0,0.5,0.3,0.8,0.7,0.8s1-0.2,1.6-0.6c0.1,0.1,0.1,0.3,0.2,0.4c-0.6,0.4-1.3,0.7-2.1,0.7
			c-0.6,0-1.2-0.4-1.2-1.2C119.5,68.9,119.9,67.9,120.5,67.1z M121,67.3c-0.2,0.2-0.4,0.6-0.5,1c0.6,0,1.1-0.1,1.4-0.3
			c0.3-0.1,0.4-0.3,0.4-0.6c0-0.3-0.2-0.7-0.6-0.7C121.5,66.8,121.3,67,121,67.3z"/>
		<path d="M126.3,67.1C126.3,67,126.3,67,126.3,67.1c-0.2-0.2-0.4-0.2-0.7-0.2c-0.2,0-0.4,0-0.6,0.1s-0.4,0.3-0.4,0.7
			s0.3,0.5,0.8,0.8c0.7,0.3,1,0.6,1,1.2c0,0.5-0.3,0.9-0.8,1.1c-0.3,0.2-0.7,0.3-1.2,0.3c-0.4,0-0.8-0.1-1-0.2c0-0.4,0-0.8,0.1-1.2
			c0.2,0,0.3,0,0.5,0l0.1,0.8c0,0.1,0,0.1,0.1,0.1c0.1,0.1,0.4,0.1,0.7,0.1c0.3,0,0.5,0,0.7-0.2c0.2-0.1,0.3-0.3,0.3-0.7
			c0-0.5-0.3-0.6-0.8-0.8c-0.6-0.3-1-0.5-1-1.1s0.4-0.9,0.8-1.1s0.8-0.2,1.1-0.2c0.4,0,0.8,0.1,0.9,0.2c0,0.4-0.1,0.8-0.1,1.1
			c-0.1,0-0.3,0-0.5,0V67.1z"/>
		<path d="M128.4,67.1c0.5-0.6,1-0.8,1.5-0.8c0.8,0,1.1,0.6,1.1,1.1c-0.1,0.3-0.3,0.8-0.6,0.9c-0.6,0.3-1.3,0.4-2.2,0.4
			c-0.1,0.3-0.1,0.6-0.1,0.8c0,0.5,0.3,0.8,0.7,0.8s1-0.2,1.6-0.6c0.1,0.1,0.1,0.3,0.2,0.4c-0.6,0.4-1.3,0.7-2.1,0.7
			c-0.6,0-1.2-0.4-1.2-1.2C127.5,68.9,127.8,67.9,128.4,67.1z M129,67.3c-0.2,0.2-0.4,0.6-0.5,1c0.6,0,1.1-0.1,1.4-0.3
			c0.3-0.1,0.4-0.3,0.4-0.6c0-0.3-0.2-0.7-0.6-0.7C129.5,66.8,129.2,67,129,67.3z"/>
		<path d="M134.3,69.5c-0.9,1-1.6,1.3-2,1.3c-0.2,0-0.6-0.3-0.8-0.6c-0.1-0.1-0.1-0.3-0.1-0.4c0-0.4,0.1-1,0.3-1.5
			c0.3-0.8,1-2.1,2.1-2.1c0.4,0,0.8,0.2,1,0.5h0.1l0.2-0.6c0.2,0.1,0.4,0.1,0.6,0.2c-0.3,0.9-0.8,2.7-0.9,3.8c0,0,0,0.1,0.1,0.1
			s0.4-0.1,0.7-0.2c0,0.2,0.1,0.3,0.1,0.5c-0.5,0.2-0.9,0.3-1.2,0.3c0,0-0.2-0.1-0.3-0.3C134.1,70.4,134.2,70,134.3,69.5L134.3,69.5
			z M132.6,68.1c-0.2,0.6-0.4,1.2-0.4,1.7c0,0.3,0.2,0.5,0.3,0.5c0.5,0,1.6-1.1,1.8-1.6c0.1-0.2,0.3-0.9,0.3-1.2
			c-0.2-0.3-0.6-0.5-0.9-0.5C133.4,66.9,132.9,67.5,132.6,68.1z"/>
		<path d="M136.6,67c0-0.2,0-0.3,0-0.5c0.7-0.1,1.2-0.3,1.3-0.3s0.2,0.2,0.3,0.2c-0.1,0.3-0.2,0.7-0.3,1.3h0.1
			c0.6-0.9,1.2-1.5,1.6-1.5c0.2,0,0.4,0.1,0.5,0.2c0,0.3-0.2,0.8-0.4,0.8c-0.1,0-0.3-0.1-0.4-0.1c-0.4,0-1.4,1.1-1.6,2
			c-0.1,0.3-0.3,1.2-0.4,1.6c-0.3,0-0.5,0-0.7,0c0.2-0.8,0.6-2.6,0.8-3.8L136.6,67z"/>
		<path d="M140.8,67.1c0.6-0.6,1-0.8,1.7-0.8c0.4,0,0.7,0.1,0.8,0.2c0,0.2-0.3,0.6-0.4,0.7c-0.1,0-0.5-0.3-0.8-0.3
			c-0.4,0-0.7,0.2-0.8,0.5c-0.4,0.5-0.7,1.3-0.7,2s0.3,0.9,0.8,0.9c0.3,0,0.8-0.2,1.2-0.4c0.1,0.1,0.1,0.3,0.1,0.4
			c-0.5,0.2-1.1,0.5-1.6,0.5c-0.7,0-1.3-0.5-1.3-1.3C139.9,68.9,140.2,67.8,140.8,67.1z"/>
		<path d="M144.1,64.3c0-0.2,0-0.3,0-0.4c0.8-0.1,1.4-0.3,1.5-0.3s0.2,0.1,0.3,0.2c-0.2,0.7-0.8,2.9-0.9,3.8h0.1
			c0.9-1,1.7-1.3,2.1-1.3c0.2,0,0.6,0.2,0.7,0.6c0.1,0.1,0.1,0.2,0.1,0.3c0,0.5-0.4,1.8-0.8,3.1v0.1c0.1,0,0.4-0.1,0.8-0.1
			c0,0.2,0,0.3,0.1,0.5c-0.4,0.2-1,0.2-1.3,0.2c-0.1,0-0.3-0.2-0.3-0.3c0.2-0.6,0.5-1.6,0.7-2.2c0.1-0.3,0.2-0.8,0.2-1
			s-0.1-0.4-0.3-0.4c-0.7,0-1.8,1.1-2,1.7c-0.1,0.4-0.4,1.7-0.5,2.1c-0.3,0-0.5,0-0.8,0c0.3-0.9,1.2-5.2,1.5-6.5L144.1,64.3z"/>
		<path d="M75.3,80.5c-0.9,1-1.6,1.3-2,1.3c-0.2,0-0.6-0.3-0.8-0.6c-0.1-0.1-0.1-0.3-0.1-0.4c0-0.4,0.1-1,0.3-1.5
			c0.3-0.8,1-2.1,2.1-2.1c0.4,0,0.8,0.2,1,0.5H76l0.2-0.6c0.2,0.1,0.4,0.1,0.6,0.2c-0.3,0.9-0.8,2.7-0.9,3.8c0,0,0,0.1,0.1,0.1
			s0.4-0.1,0.7-0.2c0,0.2,0.1,0.3,0.1,0.5c-0.5,0.2-0.9,0.3-1.2,0.3c0,0-0.2-0.1-0.3-0.3C75.2,81.3,75.3,81,75.3,80.5L75.3,80.5z
			 M73.7,79.1c-0.2,0.6-0.4,1.2-0.4,1.7c0,0.3,0.2,0.5,0.3,0.5c0.5,0,1.6-1.1,1.8-1.6c0.1-0.2,0.3-0.9,0.3-1.2
			c-0.1-0.5-0.4-0.6-0.8-0.6C74.4,77.9,74,78.5,73.7,79.1z"/>
		<path d="M77.6,78c0-0.2,0-0.3,0-0.5c0.7-0.1,1.2-0.3,1.3-0.3c0.1,0,0.2,0.1,0.3,0.2c-0.1,0.3-0.2,0.7-0.3,1.1H79
			c0.8-0.9,1.7-1.3,2.1-1.3c0.3,0,0.6,0.3,0.7,0.6c0.1,0.1,0.1,0.2,0.1,0.3c0,0.5-0.4,1.8-0.8,3.1v0.1c0.1,0,0.4-0.1,0.8-0.2
			c0,0.2,0.1,0.3,0.1,0.5c-0.4,0.2-0.9,0.3-1.3,0.3c-0.1,0-0.3-0.2-0.3-0.3c0.2-0.6,0.5-1.6,0.7-2.1c0.1-0.3,0.2-0.8,0.2-1
			s-0.1-0.4-0.3-0.4c-0.7,0-1.8,1.1-2,1.7c-0.1,0.4-0.4,1.6-0.5,2c-0.3,0-0.5,0-0.8,0c0.2-0.9,0.7-2.6,0.8-3.8L77.6,78L77.6,78z"/>
		<path d="M85.5,80.4c-0.8,0.9-1.5,1.4-2,1.4c-0.3,0-0.6-0.3-0.8-0.6c-0.1-0.1-0.1-0.3-0.1-0.4c0-0.5,0.1-1,0.3-1.6
			c0.3-0.8,1-2,2.1-2c0.4,0,0.8,0.2,1,0.4h0.1c0.2-0.8,0.4-1.7,0.6-2.4h-0.9c0-0.2,0-0.3,0-0.5c0.8-0.1,1.4-0.3,1.5-0.3
			s0.2,0.1,0.3,0.2c-0.2,0.8-1.3,5.7-1.5,6.5c0,0,0,0.1,0.1,0.1s0.4-0.1,0.7-0.2c0,0.2,0.1,0.3,0.1,0.5c-0.5,0.2-0.8,0.3-1.2,0.3
			c0,0-0.3-0.1-0.3-0.3C85.3,81.3,85.4,81,85.5,80.4L85.5,80.4z M85.6,79.5c0.1-0.3,0.2-0.9,0.3-1.2c-0.2-0.3-0.6-0.4-0.9-0.4
			c-0.6,0-1,0.7-1.3,1.3c-0.2,0.6-0.4,1.1-0.4,1.6c0,0.4,0.2,0.5,0.4,0.5C84.3,81.2,85.5,80,85.6,79.5z"/>
		<path d="M90.2,81.1L90.2,81.1l1-5.6h-0.7c0-0.2,0.1-0.3,0.1-0.5c0.5,0,1,0,1.6,0c0.7,0,1,0,1.5,0.2c0.8,0.3,1,0.9,1,1.6
			c0,1-0.8,1.8-1.4,2.1c-0.5,0.2-0.9,0.3-1.5,0.3c-0.3,0-0.4,0-0.6,0l-0.4,2H92c0,0.2-0.1,0.3-0.1,0.5c-0.4,0-1,0-1.5,0
			c-0.4,0-0.8,0-1,0c0-0.2,0.1-0.3,0.1-0.5L90.2,81.1L90.2,81.1z M91.4,78.5c0,0.1,0.3,0.1,0.6,0.1c0.4,0,0.8-0.1,1.1-0.3
			c0.6-0.3,0.8-0.8,0.8-1.5c0-0.8-0.5-1.3-1.5-1.3c-0.3,0-0.5,0-0.5,0L91.4,78.5z"/>
		<path d="M95.4,78c0-0.2,0-0.3,0-0.5c0.7-0.1,1.2-0.3,1.3-0.3c0.1,0,0.2,0.2,0.3,0.2c-0.1,0.3-0.2,0.7-0.3,1.3h0.1
			c0.6-0.9,1.2-1.5,1.6-1.5c0.2,0,0.4,0.1,0.5,0.2c0,0.3-0.2,0.8-0.4,0.8c-0.1,0-0.3-0.1-0.4-0.1c-0.4,0-1.4,1.1-1.6,2
			c-0.1,0.3-0.3,1.2-0.4,1.6c-0.3,0-0.5,0-0.7,0c0.2-0.8,0.6-2.6,0.8-3.8L95.4,78z"/>
		<path d="M101.4,80.5c-0.9,1-1.6,1.3-2,1.3c-0.2,0-0.6-0.3-0.8-0.6c-0.1-0.1-0.1-0.3-0.1-0.4c0-0.4,0.1-1,0.3-1.5
			c0.3-0.8,1-2.1,2.1-2.1c0.4,0,0.8,0.2,1,0.5h0.1l0.2-0.6c0.2,0.1,0.4,0.1,0.6,0.2c-0.3,0.9-0.8,2.7-0.9,3.8c0,0,0,0.1,0.1,0.1
			s0.4-0.1,0.7-0.2c0,0.2,0.1,0.3,0.1,0.5c-0.5,0.2-0.9,0.3-1.2,0.3c0,0-0.2-0.1-0.3-0.3C101.2,81.3,101.3,81,101.4,80.5L101.4,80.5
			z M99.8,79.1c-0.2,0.6-0.4,1.2-0.4,1.7c0,0.3,0.2,0.5,0.3,0.5c0.5,0,1.6-1.1,1.8-1.6c0.1-0.2,0.3-0.9,0.3-1.2
			c-0.2-0.3-0.6-0.5-0.9-0.5C100.5,77.9,100,78.5,99.8,79.1z"/>
		<path d="M104.4,78c0.6-0.6,1-0.8,1.7-0.8c0.4,0,0.7,0.1,0.8,0.2c0,0.2-0.3,0.6-0.4,0.7c-0.1,0-0.5-0.3-0.8-0.3
			c-0.4,0-0.7,0.2-0.8,0.5c-0.4,0.5-0.7,1.3-0.7,2s0.3,0.9,0.8,0.9c0.3,0,0.8-0.2,1.2-0.4c0.1,0.1,0.1,0.3,0.1,0.4
			c-0.5,0.2-1.1,0.5-1.6,0.5c-0.7,0-1.3-0.5-1.3-1.3C103.5,79.8,103.8,78.8,104.4,78z"/>
		<path d="M108.7,81.2c0.3,0,0.8-0.1,1.1-0.2c0,0.2,0,0.3,0,0.5c-0.6,0.2-1.2,0.3-1.6,0.3c-0.3,0-0.8-0.3-0.8-0.7c0-0.1,0-0.1,0-0.2
			c0-0.3,0.3-1.6,0.4-1.9c0.1-0.4,0.2-0.9,0.3-1.2c-0.2,0-0.6,0-0.8,0c0-0.2,0.1-0.3,0.1-0.5c0.3,0,0.5,0,0.8-0.1c0,0,0.1,0,0.1-0.1
			c0.1-0.3,0.2-0.7,0.3-0.9c0.3-0.1,0.6-0.2,0.7-0.2l0,0c-0.1,0.3-0.2,0.8-0.3,1.1c0.5,0,1,0,1.5,0c0,0.2-0.1,0.4-0.1,0.6
			c-0.5,0-1,0-1.6,0c-0.1,0.3-0.2,0.8-0.3,1.2c-0.1,0.5-0.3,1.4-0.3,1.7C108.3,81.1,108.4,81.2,108.7,81.2z"/>
		<path d="M110.8,78c0-0.2,0-0.3,0-0.5c0.8-0.1,1.3-0.3,1.4-0.3s0.2,0.2,0.3,0.3c-0.3,1-0.8,3.2-0.8,3.7v0.1c0.2,0,0.5-0.1,0.8-0.2
			c0,0.2,0.1,0.3,0.1,0.5c-0.4,0.1-0.8,0.2-1.3,0.2c-0.1,0-0.3-0.2-0.4-0.3c0.3-1,0.6-2.3,0.8-3.6L110.8,78z M112.9,75.8
			c0,0.3-0.3,0.6-0.6,0.6s-0.6-0.3-0.6-0.5c0-0.3,0.2-0.6,0.6-0.6C112.7,75.3,112.9,75.6,112.9,75.8z"/>
		<path d="M117.7,78c0.5-0.6,1-0.8,1.5-0.8c0.8,0,1.1,0.6,1.1,1.1c-0.1,0.3-0.3,0.8-0.6,0.9c-0.6,0.3-1.3,0.4-2.2,0.4
			c-0.1,0.3-0.1,0.6-0.1,0.8c0,0.5,0.3,0.8,0.7,0.8c0.4,0,1-0.2,1.6-0.6c0.1,0.1,0.1,0.3,0.2,0.4c-0.6,0.4-1.3,0.7-2.1,0.7
			c-0.6,0-1.2-0.4-1.2-1.2C116.7,79.9,117,78.9,117.7,78z M118.2,78.2c-0.2,0.2-0.4,0.6-0.5,1c0.6,0,1.1-0.1,1.4-0.3
			c0.3-0.1,0.4-0.3,0.4-0.6s-0.2-0.7-0.6-0.7C118.7,77.8,118.4,78,118.2,78.2z"/>
		<path d="M114.2,78.1c0.6-0.6,1-0.8,1.7-0.8c0.4,0,0.7,0.1,0.8,0.2c0,0.2-0.3,0.6-0.4,0.7c-0.1,0-0.5-0.3-0.8-0.3
			c-0.4,0-0.7,0.2-0.8,0.5c-0.4,0.5-0.7,1.3-0.7,2s0.3,0.9,0.8,0.9c0.3,0,0.8-0.2,1.2-0.4c0.1,0.1,0.1,0.3,0.1,0.4
			c-0.5,0.2-1.1,0.5-1.6,0.5c-0.7,0-1.3-0.5-1.3-1.3C113.2,79.9,113.5,78.8,114.2,78.1z"/>
	</g>
</g>
</svg>
