<?xml version="1.0" encoding="utf-8"?>
<!-- Generator: Adobe Illustrator 19.1.0, SVG Export Plug-In . SVG Version: 6.00 Build 0)  -->
<svg version="1.1" id="Layer_1" xmlns="http://www.w3.org/2000/svg" xmlns:xlink="http://www.w3.org/1999/xlink" x="0px" y="0px"
	 viewBox="0 0 450 71.1997" style="enable-background:new 0 0 450 71.1997;" xml:space="preserve">
<style type="text/css">
	.st0{fill:#CCCBCB;}
	.st1{fill:#981636;}
</style>
<g>
	<path d="M13.5639,26.2978c0-8.7659,0-17.5319,0-26.2978c9.2257,0,18.4514,0,27.6771,0c0,8.7659,0,17.5319,0,26.2978
		c-0.0071,0.0283-0.0163,0.0563-0.0207,0.0851c-0.0063,0.0408-0.006,0.0828-0.0138,0.1232
		c-0.0373,0.1932-0.1009,0.3776-0.1874,0.5545c-0.1906,0.3898-0.4701,0.7068-0.8005,0.9822
		c-0.2587,0.2157-0.5456,0.3864-0.8451,0.5402c-3.0944,1.5885-6.1874,3.1796-9.2808,4.77c-0.924,0.475-1.8481,0.9499-2.7717,1.4256
		c-0.0353,0.0182-0.0664,0.0442-0.0995,0.0666c-0.0301,0-0.0603,0-0.0904,0c-0.033-0.0228-0.0641-0.049-0.0992-0.0678
		c-3.137-1.6781-6.2742-3.3555-9.4114-5.0331c-0.7237-0.387-1.4477-0.7735-2.1708-1.1616c-0.1492-0.08-0.2991-0.1597-0.4418-0.2505
		c-0.3294-0.2095-0.6234-0.4614-0.8699-0.7657c-0.2777-0.3428-0.4704-0.7248-0.535-1.1659
		C13.5978,26.3652,13.5773,26.332,13.5639,26.2978z M40.6795,0.569c-0.0698,0-0.122,0-0.1742,0c-8.7279,0-17.4557,0-26.1836,0
		c-0.0301,0-0.0604-0.0013-0.0904,0.0005c-0.0251,0.0015-0.05,0.0067-0.0815,0.0112c0,0.0582,0,0.1107,0,0.1631
		c0,6.5799,0,13.1597,0,19.7396c0,1.8579-0.0001,3.7158,0.0005,5.5737c0,0.0789,0.0022,0.1586,0.0127,0.2366
		c0.0372,0.278,0.1466,0.5282,0.3044,0.7582c0.1483,0.2161,0.3298,0.4012,0.5311,0.5678c0.2276,0.1883,0.4807,0.3357,0.7407,0.4746
		c3.7672,2.0125,7.5333,4.027,11.2997,6.0408c0.0463,0.0248,0.0933,0.0482,0.1413,0.073c0.0461-0.0228,0.09-0.0438,0.1332-0.0661
		c3.9724-2.0417,7.9451-4.0831,11.9169-6.1261c0.3823-0.1966,0.7197-0.4539,0.9972-0.785c0.1988-0.2372,0.3448-0.5019,0.4149-0.8061
		c0.035-0.1521,0.0371-0.3061,0.0371-0.4607c0-5.2797,0-10.5594,0-15.8391c0-3.1316,0-6.2633,0-9.3949
		C40.6795,0.6815,40.6795,0.633,40.6795,0.569z"/>
	<path d="M34.4079,20.108c0.0057-0.0304,0.01-0.0435,0.0104-0.0567c0.0011-0.0377,0.0007-0.0754,0.0007-0.113
		c0-1.6582,0-3.3163,0-4.9745c0-0.0301,0.0014-0.0604-0.0002-0.0904c-0.0148-0.2798,0.156-0.4118,0.3624-0.458
		c0.1386-0.031,0.2777-0.0246,0.4096,0.0354c0.1541,0.0702,0.2424,0.1867,0.245,0.3605c0.0007,0.0452,0.0007,0.0904,0.0007,0.1357
		c0,3.1882-0.0001,6.3764,0.0002,9.5646c0,0.1808,0.003,0.3617,0.0045,0.5425c0.0003,0.037,0,0.074,0,0.117
		c-0.0302,0.005-0.0512,0.0111-0.0723,0.0114c-0.1356,0.0019-0.2714-0.0003-0.4069,0.0048
		c-0.0666,0.0025-0.1101-0.0195-0.1516-0.0729c-0.3262-0.4193-0.6557-0.8362-0.984-1.2539
		c-2.5964-3.3031-5.1929-6.6062-7.7893-9.9093c-1.2039-1.5316-2.4077-3.0633-3.6116-4.5948
		c-0.0229-0.0291-0.0473-0.0571-0.0829-0.0999c-0.0054,0.0378-0.0115,0.061-0.0116,0.0842
		c-0.0008,0.1884-0.0005,0.3769-0.0005,0.5653c0,0.9421,0,1.8843,0,2.8264c0,0.0301-0.0021,0.0605,0.0003,0.0904
		c0.0162,0.2009-0.0749,0.335-0.2978,0.4078c-0.1592,0.052-0.3194,0.0532-0.4764-0.007c-0.1556-0.0596-0.2456-0.1696-0.2433-0.3432
		c0.0005-0.0377-0.0003-0.0754-0.0003-0.1131c0-1.5677-0.0005-3.1354,0.0013-4.7031c0.0001-0.0833-0.0193-0.1499-0.0724-0.2162
		c-0.2661-0.3324-0.5276-0.6684-0.7908-1.0031c-0.0209-0.0266-0.0427-0.0525-0.0697-0.0857c-0.0298,0-0.0633-0.0001-0.0967,0
		c-0.3618,0.0008-0.7235,0.0027-1.0853,0.0015c-0.0825-0.0003-0.1666-0.0025-0.247-0.0188
		c-0.2149-0.0436-0.3633-0.2365-0.3615-0.4581c0.0017-0.213,0.145-0.3803,0.3651-0.4279c0.0932-0.0202,0.1867-0.0204,0.2811-0.0136
		c0.7404,0.0536,1.4813,0.1007,2.2242,0.0881c0.3804-0.0065,0.7608-0.0189,1.141-0.0326c0.1164-0.0042,0.2325-0.0205,0.3485-0.0339
		c0.0911-0.0105,0.1809-0.0069,0.2689,0.0182c0.108,0.0307,0.199,0.0886,0.2683,0.1782c0.4957,0.6407,0.9904,1.2822,1.4874,1.9218
		c2.8949,3.7249,5.7903,7.4494,8.6856,11.1741c0.222,0.2856,0.4438,0.5714,0.666,0.8568
		C34.3493,20.0413,34.3738,20.0679,34.4079,20.108z"/>
	<path d="M28.8817,8.8375c-0.57-1.1307-1.1374-2.2562-1.7145-3.4009c-0.4994,1.0015-0.9891,1.9833-1.4866,2.981
		c-0.1652-0.2164-0.3196-0.4186-0.4774-0.6254c0.0137-0.032,0.0252-0.063,0.0398-0.0926c0.3818-0.7774,0.7636-1.5548,1.1459-2.3319
		c0.4189-0.8514,0.8375-1.7031,1.2591-2.5532c0.0413-0.0833,0.1002-0.1585,0.1561-0.2336c0.0241-0.0324,0.0591-0.0584,0.0932-0.0812
		c0.1245-0.0835,0.2489-0.0755,0.3636,0.0218c0.079,0.0671,0.133,0.1533,0.1796,0.2443c0.1063,0.2079,0.212,0.416,0.3179,0.6241
		c0.7036,1.3828,1.4072,2.7655,2.1109,4.1482c0.0154,0.0302,0.0318,0.0598,0.0532,0.0999c0.0855,0.0151,0.1774,0.0319,0.2695,0.0474
		c0.6276,0.1055,1.2513,0.23,1.869,0.3834c0.3877,0.0963,0.7656,0.2249,1.1436,0.3523c0.6182,0.2084,1.2486,0.3694,1.8895,0.4896
		c0.0295,0.0055,0.0586,0.0134,0.0987,0.0227c0.0153,0.0658,0.0356,0.1337,0.0464,0.2031c0.0558,0.3571,0.1128,0.714,0.1624,1.0719
		c0.0745,0.5377,0.1679,1.071,0.3295,1.5906c0.0155,0.0499,0.0268,0.1022,0.0311,0.1541c0.0075,0.0897-0.0366,0.1557-0.1193,0.1847
		c-0.1586,0.0558-0.2901,0.0548-0.4037-0.0734c-0.0548-0.0619-0.1098-0.1248-0.1558-0.1932
		c-0.0756-0.1124-0.1446-0.2293-0.2154-0.3449c-0.304-0.4963-0.6495-0.9609-1.056-1.3787
		c-0.1635-0.1681-0.3426-0.3191-0.5414-0.4429c-0.6085-0.3788-1.2369-0.7195-1.9131-0.9641
		c-0.3119-0.1128-0.6309-0.2018-0.9556-0.27c-0.0136-0.0028-0.0275-0.0041-0.0566-0.0083c0.0242,0.0522,0.0414,0.0926,0.0613,0.1316
		c0.3037,0.5976,0.6077,1.1949,0.9116,1.7924c0.3312,0.6511,0.6626,1.3022,0.9935,1.9535c0.1772,0.3487,0.418,0.6435,0.7385,0.8701
		c0.1771,0.1252,0.3673,0.2224,0.5856,0.2526c0.0483,0.0067,0.0974,0.0098,0.1462,0.0099c0.2864,0.0009,0.5728,0.0004,0.8592,0.0005
		c0.0301,0,0.0603-0.0007,0.0904,0.0006c0.1779,0.0077,0.2947,0.1216,0.307,0.2988c0.0156,0.226-0.1345,0.3867-0.3614,0.3779
		c-0.32-0.0125-0.6396-0.0337-0.9595-0.0461c-0.4366-0.0169-0.8734-0.0349-1.3102-0.0416c-0.403-0.0061-0.8064-0.0048-1.2093,0.0059
		c-0.3953,0.0105-0.7902,0.0366-1.1852,0.0566c-0.1467,0.0074-0.2933,0.0176-0.44,0.0256c-0.1345,0.0074-0.2486-0.0328-0.313-0.1582
		c-0.069-0.1341-0.0629-0.27,0.0219-0.3967c0.051-0.0762,0.1259-0.1185,0.2189-0.1213c0.0828-0.0025,0.1666-0.009,0.2485,0.0001
		c0.1298,0.0144,0.2328-0.0949,0.2467-0.2264c0.0085-0.0802-0.0048-0.1583-0.0302-0.2337c-0.0216-0.0641-0.0455-0.128-0.0756-0.1884
		c-0.1845-0.3709-0.3704-0.741-0.5571-1.1107c-0.0672-0.1331-0.1642-0.2435-0.278-0.3384
		c-0.1471-0.1226-0.3162-0.1831-0.5096-0.1833c-0.5087-0.0004-1.0173-0.0063-1.526-0.0061c-0.0711,0-0.1186-0.0195-0.1628-0.0761
		c-0.1345-0.1722-0.2748-0.3399-0.4124-0.5096c-0.0207-0.0256-0.0394-0.0528-0.0623-0.0837
		c0.0451-0.0239,0.0872-0.0147,0.1271-0.0147c0.52-0.0007,1.0401-0.006,1.56,0.0019c0.2422,0.0037,0.4408-0.0723,0.6085-0.2442
		c0.0655-0.0672,0.1379-0.1285,0.2117-0.1868c0.2195-0.1734,0.4691-0.2763,0.7499-0.2742c0.2671,0.002,0.3985-0.2017,0.4298-0.3835
		c0.0177-0.1029,0.0114-0.2023-0.0198-0.301c-0.051-0.1616-0.1819-0.2817-0.379-0.2794c-0.3617,0.0042-0.7235,0.0012-1.0852,0.0011
		c-0.1959,0-0.3919,0-0.5878,0C28.9598,8.8375,28.9225,8.8375,28.8817,8.8375z"/>
	<path d="M25.3502,29.9826c0.3052,0.0084,0.5888-0.0192,0.8306-0.2148c0.2706-0.2189,0.484-0.4836,0.6407-0.7944
		c0.0499-0.0989,0.0759-0.2036,0.0855-0.3139c0.0419-0.4817,0.0274-0.964,0.0098-1.4458c-0.0234-0.6437-0.0555-1.2868-0.0548-1.9315
		c0.0035-3.154,0.0016-6.3081,0.0016-9.4621c0-0.0438,0-0.0875,0-0.1415c0.0511,0.0194,0.0673,0.0549,0.0892,0.0828
		c0.4956,0.6312,0.9907,1.2629,1.4859,1.8944c0.2487,0.3173,0.4957,0.636,0.7475,0.9508c0.0554,0.0692,0.0764,0.1381,0.076,0.2261
		c-0.0033,0.6519-0.0018,1.3038-0.0018,1.9557c0,1.3905-0.0039,2.781,0.0024,4.1715c0.0019,0.4106-0.0009,0.821-0.0069,1.2315
		c-0.0045,0.3107-0.0537,0.6149-0.1264,0.9155c-0.2341,0.9681-0.7282,1.7865-1.4404,2.476
		c-0.5283,0.5114-1.1311,0.9108-1.818,1.1787c-0.2463,0.0961-0.4988,0.1716-0.7617,0.2045
		c-0.4466,0.0559-0.8621-0.0265-1.2339-0.291c-0.0153-0.0109-0.0301-0.0229-0.0463-0.0324
		c-0.251-0.1473-0.3909-0.3729-0.4409-0.6526c-0.0623-0.3477,0.0218-0.657,0.3024-0.8842c0.3057-0.2474,0.652-0.2985,1.0186-0.1476
		c0.2299,0.0946,0.407,0.2562,0.5361,0.468c0.0927,0.1521,0.1422,0.3154,0.1052,0.4962
		C25.3477,29.9367,25.3502,29.9521,25.3502,29.9826z"/>
	<path d="M21.0689,21.8188c-0.0435-0.0216-0.0737-0.0352-0.1026-0.0512c-0.7195-0.3973-1.3832-0.8712-1.9687-1.4496
		c-0.7658-0.7565-1.3677-1.6221-1.735-2.6409c-0.1745-0.4841-0.2849-0.9823-0.3347-1.4948c-0.0373-0.3837-0.044-0.7674-0.0116-1.151
		c0.0618-0.7317,0.2535-1.4287,0.5719-2.0909c0.3412-0.7095,0.7991-1.3371,1.3402-1.9056c0.6334-0.6655,1.3594-1.2123,2.1537-1.6706
		c0.025-0.0144,0.0525-0.0244,0.0908-0.042c0,0.0494,0,0.0864,0,0.1234c0,0.6406-0.0009,1.2811,0.0013,1.9217
		c0.0003,0.075-0.0184,0.1368-0.0588,0.1999c-0.4208,0.6574-0.7007,1.3729-0.8682,2.1334
		c-0.1606,0.7291-0.2182,1.4679-0.1789,2.2123c0.0446,0.8453,0.262,1.6481,0.6359,2.408c0.1249,0.2538,0.2648,0.499,0.4217,0.7343
		c0.03,0.045,0.0482,0.0895,0.0481,0.146c-0.0016,0.8478-0.0011,1.6956-0.0012,2.5434
		C21.0727,21.7633,21.0709,21.7819,21.0689,21.8188z"/>
	<path d="M22.3392,19.2127c0,1.4241,0.0003,2.8483-0.0005,4.2724c-0.0001,0.129,0.0092,0.2568,0.0468,0.3797
		c0.024,0.0784,0.0572,0.1558,0.0979,0.227c0.0621,0.1087,0.1554,0.1639,0.2884,0.1612c0.2938-0.0058,0.5877-0.0018,0.8816-0.0018
		c0.0339,0,0.0679-0.0007,0.1017,0.0009c0.2108,0.0102,0.3417,0.1138,0.3988,0.319c0.0342,0.1231,0.0301,0.2465-0.0164,0.366
		c-0.0623,0.1602-0.1938,0.2546-0.3661,0.251c-0.1844-0.0039-0.3687-0.0171-0.5527-0.0302
		c-0.7407-0.0527-1.4818-0.0837-2.2242-0.0426c-0.3911,0.0217-0.782,0.0466-1.1731,0.0689
		c-0.0789,0.0045-0.1582,0.0069-0.2372,0.0047c-0.2496-0.0069-0.4302-0.1878-0.4411-0.4386
		c-0.0116-0.2684,0.1518-0.4664,0.4076-0.4922c0.0524-0.0053,0.1053-0.0066,0.1579-0.0067c0.2713-0.0006,0.5426-0.0039,0.8138,0.001
		c0.1699,0.003,0.3077-0.0597,0.4253-0.176c0.1775-0.1756,0.2774-0.3929,0.324-0.634c0.0206-0.1064,0.0281-0.2168,0.0283-0.3254
		c0.0017-1.6201,0.0012-3.2401,0.0012-4.8602c0-1.0964,0-2.1927,0-3.2891c0-0.0301-0.0001-0.0603,0-0.0904
		c0.0007-0.2354,0.1036-0.3741,0.3284-0.4383c0.1495-0.0427,0.2987-0.0375,0.4433,0.0198c0.2019,0.08,0.2695,0.2358,0.2679,0.391
		c-0.0043,0.4295-0.0015,0.859-0.0015,1.2885C22.3392,17.1631,22.3392,18.1879,22.3392,19.2127z"/>
	<path d="M33.2948,5.8602c0.5038,0.0228,1.0076,0.0477,1.5115,0.0678c0.4369,0.0174,0.8729-0.0025,1.3082-0.0425
		c0.1837-0.0169,0.3677-0.0298,0.5515-0.0445c0.015-0.0012,0.0301-0.0019,0.0451-0.0021c0.1874-0.0014,0.3423,0.062,0.4283,0.2374
		c0.0905,0.1848,0.0734,0.3661-0.0498,0.532c-0.0707,0.0952-0.1706,0.145-0.2886,0.1588c-0.1046,0.0122-0.2104,0.0187-0.3132,0.0397
		c-0.2457,0.0502-0.4764,0.1407-0.682,0.2864c-0.0671,0.0476-0.1305,0.1025-0.1876,0.1618c-0.1169,0.1215-0.18,0.2667-0.1733,0.4389
		c0.0029,0.0752,0.0012,0.1506,0.0002,0.2259c-0.002,0.1539-0.074,0.2672-0.209,0.3363c-0.1963,0.1004-0.3993,0.1038-0.5989,0.0131
		c-0.1461-0.0664-0.2236-0.1852-0.2248-0.3491c-0.0003-0.0414-0.003-0.0831,0.0004-0.1242
		c0.0101-0.1257-0.0302-0.2377-0.0907-0.3439c-0.183-0.3213-0.4607-0.5198-0.8118-0.6219
		c-0.1347-0.0392-0.2734-0.0497-0.4127-0.0572c-0.1972-0.0107-0.3025-0.0923-0.3641-0.2789
		c-0.0452-0.1369-0.0455-0.2742,0.0052-0.4095c0.0628-0.1678,0.1864-0.2502,0.365-0.2448c0.0639,0.0019,0.1277,0.0084,0.1915,0.0128
		C33.295,5.8551,33.2949,5.8577,33.2948,5.8602z"/>
	<path d="M26.6242,22.4811c0,0.2949,0,0.5833,0,0.8774c-0.1077,0.012-0.2082,0.0014-0.308-0.0065
		c-1.2618-0.1-2.4808-0.3906-3.6673-0.8255c-0.0212-0.0078-0.0423-0.0159-0.0631-0.0245c-0.0068-0.0028-0.0127-0.0077-0.019-0.0116
		c-0.0184-0.0833-0.0223-1.5904-0.0029-1.7219c0.1092,0.0639,0.1959,0.1516,0.2961,0.2199c0.1026,0.07,0.2027,0.144,0.3065,0.2121
		c0.1038,0.0681,0.2098,0.1333,0.317,0.196c0.1072,0.0626,0.2162,0.1225,0.3263,0.18c0.11,0.0575,0.2214,0.1128,0.334,0.1653
		c0.1126,0.0524,0.2267,0.1017,0.3414,0.1492c0.1112,0.046,0.2234,0.0901,0.3366,0.1312c0.1167,0.0424,0.2344,0.082,0.3527,0.1197
		c0.1183,0.0377,0.2372,0.0736,0.3569,0.1065c0.1197,0.0329,0.2402,0.0633,0.3612,0.0909c0.121,0.0276,0.2429,0.0515,0.3648,0.0751
		C26.3787,22.4378,26.5004,22.4587,26.6242,22.4811z"/>
	<path d="M23.55,11.2094c0.0766,0.0551,0.421,0.4274,0.5196,0.5609c-0.015,0.0343-0.0299,0.0724-0.0481,0.1088
		c-0.1178,0.2357-0.2386,0.4699-0.3533,0.7071c-0.0406,0.084-0.0769,0.1728-0.0973,0.2634
		c-0.0416,0.1843,0.0151,0.3431,0.1576,0.4673c0.1178,0.1026,0.2568,0.1551,0.4136,0.1559c0.1846,0.0009,0.3692,0,0.5537,0.0004
		c0.0339,0.0001,0.068,0.0002,0.1015,0.0041c0.0657,0.0076,0.1224,0.0361,0.1691,0.0829c0.0915,0.0916,0.118,0.2579,0.0613,0.3909
		c-0.056,0.1314-0.157,0.2018-0.2995,0.1989c-0.1354-0.0027-0.2706-0.017-0.4059-0.024c-0.4287-0.0222-0.8572-0.0494-1.2861-0.0634
		c-0.5273-0.0173-1.0545,0.0012-1.5811,0.0294c-0.282,0.0151-0.5637,0.0366-0.8455,0.0551c-0.0263,0.0017-0.0526,0.0039-0.079,0.004
		c-0.145,0.0009-0.2463-0.0707-0.2858-0.2089c-0.0286-0.1002-0.0269-0.2019,0.0159-0.2987
		c0.0506-0.1146,0.1377-0.1721,0.2663-0.1711c0.3164,0.0023,0.6328-0.0005,0.9492,0.001c0.2649,0.0013,0.5147-0.0602,0.7523-0.1741
		c0.2391-0.1147,0.4149-0.2891,0.5328-0.5307c0.2427-0.4972,0.4955-0.9895,0.7445-1.4837
		C23.5191,11.2592,23.5351,11.2349,23.55,11.2094z"/>
	<path d="M27.1609,10.2169c-0.3156-0.4091-0.63-0.8166-0.9488-1.2299c0.0504-0.0259,0.0922-0.0174,0.1313-0.0155
		c0.2069,0.01,0.4142,0.0171,0.6205,0.0353c0.4059,0.0358,0.8125,0.05,1.2195,0.0405c0.5762-0.0135,1.1523-0.0335,1.7284-0.0522
		c0.1694-0.0055,0.3386-0.0168,0.508-0.0237c0.1148-0.0047,0.2261,0.0102,0.3243,0.0765c0.1102,0.0745,0.16,0.178,0.1399,0.3106
		c-0.0137,0.0906-0.0647,0.1595-0.1387,0.2113c-0.0827,0.0579-0.1758,0.083-0.2761,0.0874
		c-0.0789,0.0035-0.1579,0.0087-0.2364,0.0167c-0.1977,0.0202-0.3691,0.1006-0.5164,0.2329
		c-0.0673,0.0604-0.1321,0.1235-0.1992,0.1841c-0.0965,0.0872-0.2098,0.127-0.3407,0.1267
		c-0.6444-0.0015-1.2888-0.0007-1.9332-0.0007C27.2171,10.2169,27.1909,10.2169,27.1609,10.2169z"/>
	<path d="M35.7079,21.5632c0-0.059,0-0.0961,0-0.1332c0-0.6326,0.0007-1.2652-0.001-1.8979
		c-0.0002-0.0707,0.0129-0.1312,0.0577-0.1882c0.1484-0.1886,0.2415-0.4045,0.3189-0.6308c0.1059-0.3095,0.222-0.6157,0.341-0.9205
		c0.0477-0.1221,0.1132-0.2374,0.1735-0.3543c0.0518-0.1004,0.133-0.1471,0.2495-0.134c0.142,0.016,0.2851,0.0222,0.4267,0.0402
		c0.0545,0.0069,0.1085,0.03,0.1587,0.0541c0.0494,0.0237,0.0666,0.0697,0.0527,0.1241c-0.0065,0.0255-0.0149,0.0505-0.0229,0.0756
		c-0.3822,1.2011-0.7274,2.413-1.0568,3.6294c-0.0098,0.0361-0.0201,0.072-0.0277,0.0989c-0.12,0.0314-0.2344,0.0539-0.3433,0.092
		C35.9299,21.4553,35.8305,21.5081,35.7079,21.5632z"/>
	<path d="M32.7369,22.9078c-0.5368,0.2657-2.6159,0.5913-3.2628,0.5134c-0.0196-0.0795-0.0246-0.7902-0.006-0.9339
		c0.2891-0.0343,0.5805-0.0596,0.8687-0.1056c0.2893-0.0462,0.5771-0.1049,0.8621-0.1729c0.2849-0.0679,0.5655-0.154,0.8537-0.2337
		C32.1073,22.0211,32.614,22.7077,32.7369,22.9078z"/>
	<path d="M34.4123,11.8474c0-0.3012-0.0016-0.6025,0.001-0.9037c0.0007-0.0823,0.0102-0.1651,0.0227-0.2466
		c0.0067-0.0437,0.0235-0.0876,0.0439-0.1271c0.0573-0.111,0.1524-0.1421,0.2649-0.0865c0.0399,0.0197,0.0797,0.0453,0.1104,0.0771
		c0.1756,0.1816,0.3409,0.3721,0.4726,0.5887c0.082,0.1348,0.1181,0.2836,0.1179,0.4417c-0.0006,0.4067,0.0003,0.8134-0.0004,1.22
		c-0.0004,0.2028-0.0836,0.3256-0.2718,0.3976c-0.1685,0.0645-0.3394,0.0656-0.5068-0.003c-0.166-0.068-0.2551-0.1914-0.2545-0.3754
		C34.413,12.5026,34.4123,12.175,34.4123,11.8474z"/>
	<path d="M26.2786,7.6736c0.5712-0.0793,1.132-0.1349,1.7041-0.1595c0.1121,0.2423,0.2236,0.4832,0.3414,0.7376
		c-0.8064,0.0436-1.5973,0.0846-2.398,0.2217C26.0448,8.1961,26.1615,7.9371,26.2786,7.6736z"/>
	<path d="M29.2722,11.4594c0,0.4939,0,0.9813,0,1.4727c-0.0686-0.0545-1.079-1.3629-1.1371-1.4699
		C28.2143,11.4409,29.1478,11.4373,29.2722,11.4594z"/>
</g>
<g>
	<g>
		<path class="st0" d="M45.6173,18.3026l1.2038-4.1202h14.5374l1.2036,4.1202H62.053c-0.9259-1.1798-3.056-3.2874-4.6763-3.2874
			c-0.9725,0-1.2499,0.6486-1.2499,1.505v8.0787c0,2.084,0.0922,3.936,1.898,4.0281v0.4626c-1.3889,0-2.7083-0.0922-3.9351-0.0922
			c-1.2272,0-2.5466,0.0922-4.1207,0.0922V28.627c1.9905-0.0922,2.0836-1.9441,2.0836-4.0281v-8.0787
			c0-0.8564-0.2782-1.505-1.2502-1.505c-1.6206,0-3.7498,2.1075-4.6758,3.2874L45.6173,18.3026L45.6173,18.3026z"/>
		<path class="st0" d="M72.4571,19.252h0.0465c0.8334-1.7589,2.1066-2.6388,4.0972-2.6388c2.454,0,4.1898,1.6432,4.1898,4.0968
			v6.1347c0,1.0877,0.463,1.6902,1.5281,1.898v0.3469c-1.0651,0-2.2458-0.0922-3.2178-0.0922c-0.949,0-2.0371,0.0922-3.1021,0.0922
			v-0.3469c0.8103-0.0931,1.4124-0.7408,1.4124-1.898v-5.4635c0-1.5041-0.3934-3.4725-2.2453-3.4725
			c-2.1301,0-2.7087,2.1075-2.7087,5.1853v2.038c0,1.9215,0.3243,3.2638,1.5742,3.6108v0.3469
			c-1.0877,0-2.1988-0.0922-3.2638-0.0922c-1.0651,0-2.1762,0.0922-3.2638,0.0922v-0.3469
			c1.2499-0.3469,1.5742-1.6893,1.5742-3.6108V15.0848c0-1.0416-0.3473-1.5041-1.3428-1.7128v-0.3469
			c1.5739-0.1626,3.148-0.4399,4.7221-0.8103V19.252z"/>
		<path class="st0" d="M91.5399,21.6595v1.3198c0,2.5231,0.7408,5.3931,3.982,5.3931c2.4535,0,3.9581-2.2918,4.4676-4.4445
			l0.6016,0.4399c-0.8099,3.2874-3.0322,4.9775-6.5277,4.9775c-3.912,0-6.3195-2.9865-6.3195-6.366
			c0-3.5195,2.4075-6.366,6.3195-6.366c3.1712,0,5.9261,1.8049,6.0882,5.0462L91.5399,21.6595L91.5399,21.6595z M96.3548,20.9187
			c-0.0691-1.4815-0.2773-3.5647-2.4075-3.5647c-2.1292,0-2.3379,2.0832-2.4075,3.5647H96.3548z"/>
		<path class="st0" d="M123.8773,23.0715l-0.8795,1.8058c-0.3013,0.7173-0.5555,1.4355-0.5555,1.898
			c0,1.1572,0.7173,1.6432,1.7589,1.8519v0.4626c-0.949,0-2.0136-0.0922-2.87-0.0922c-0.8568,0-1.8288,0.0922-2.7778,0.0922v-0.4165
			c0.6712-0.1383,2.1292-1.3885,3.3335-3.6578l5.5322-10.4854c0.1392-0.2782,0.4169-0.8103,0.5555-0.8103h0.0465
			c0.1622,0,0.5325,0.6016,0.6712,0.879l6.0187,11.2966c1.0881,2.0136,1.7363,2.5231,2.4535,2.6622v0.5321
			c-1.2729,0-2.7544-0.0922-3.9351-0.0922c-1.1572,0-2.477,0.0922-3.7734,0.0922v-0.4626c0.7408-0.1617,1.2502-0.2548,1.2502-1.1337
			c0-0.533-0.3473-1.4128-0.7873-2.2458l-1.1341-2.1762L123.8773,23.0715L123.8773,23.0715z M124.2476,22.2847h4.1668
			l-2.1066-4.1898L124.2476,22.2847z"/>
		<path class="st0" d="M147.4646,19.252h0.0465c0.8334-1.7589,2.1066-2.6388,4.0741-2.6388c2.0141,0,3.4721,1.0877,3.889,2.5692
			c0.8794-1.6893,2.1527-2.5692,4.1667-2.5692c2.4535,0,4.1898,1.6432,4.1898,4.0968v6.1347c0,1.0877,0.463,1.6902,1.5281,1.898
			v0.3469c-1.0651,0-2.2453-0.0922-3.2178-0.0922c-0.949,0-2.0371,0.0922-3.1017,0.0922v-0.3469
			c0.8099-0.0931,1.412-0.7408,1.412-1.898v-4.8845c0-2.0832-0.3938-4.0516-2.2457-4.0516c-1.7128,0-2.4305,2.2458-2.4305,4.0516
			v4.8845c0,1.0877,0.463,1.6902,1.5281,1.898v0.3469c-1.0651,0-2.2458-0.0922-3.2178-0.0922c-0.949,0-2.0371,0.0922-3.1021,0.0922
			v-0.3469c0.8103-0.0931,1.4124-0.7408,1.4124-1.898v-4.8845c0-2.0832-0.3934-4.0516-2.2453-4.0516
			c-1.7132,0-2.4309,2.2458-2.4309,4.0516v3.1717c0,1.9215,0.3243,3.2638,1.5741,3.6108v0.3469
			c-1.0881,0-2.1992-0.0922-3.2638-0.0922c-1.0646,0-2.1758,0.0922-3.2638,0.0922v-0.3469
			c1.2498-0.3469,1.5741-1.6893,1.5741-3.6108v-4.9313c0-1.6198-0.7408-2.1058-1.4355-2.2449v-0.3478
			c1.5281-0.1147,3.0326-0.3234,4.5602-0.6477v2.2918H147.4646z"/>
		<path class="st0" d="M174.5361,21.6595v1.3198c0,2.5231,0.7408,5.3931,3.9812,5.3931c2.454,0,3.9585-2.2918,4.468-4.4445
			l0.6016,0.4399c-0.8103,3.2874-3.0326,4.9775-6.5277,4.9775c-3.9124,0-6.3199-2.9865-6.3199-6.366
			c0-3.5195,2.4075-6.366,6.3199-6.366c3.1712,0,5.9261,1.8049,6.0878,5.0462L174.5361,21.6595L174.5361,21.6595z M179.3512,20.9187
			c-0.0695-1.4815-0.2782-3.5647-2.4075-3.5647c-2.1301,0-2.3384,2.0832-2.4075,3.5647H179.3512z"/>
		<path class="st0" d="M197.1789,20.6405c-0.3704-0.4165-0.7408-0.8103-1.3424-0.8103c-1.3424,0-1.8058,1.8058-1.8058,3.5195v1.7823
			c0,1.9215,0.3243,3.2638,1.5745,3.6108v0.3469c-1.0881,0-2.1992-0.0922-3.2643-0.0922c-1.0646,0-2.1758,0.0922-3.2638,0.0922
			v-0.3469c1.2498-0.3469,1.5741-1.6893,1.5741-3.6108v-4.9314c0-1.6198-0.7408-2.1058-1.4355-2.2449v-0.3478
			c1.5281-0.1147,3.0326-0.3234,4.6993-0.6477c0,0.6016-0.0461,1.2738-0.0461,1.9675v1.3894h0.0461
			c0.486-1.6441,1.7132-3.7038,3.6112-3.7038h1.042L197.1789,20.6405z"/>
		<path class="st0" d="M208.8641,26.2197c0,1.3885,0.3243,2.3379,1.5741,2.5231v0.3469c-1.0881,0-2.1992-0.0922-3.2638-0.0922
			c-1.0646,0-2.1758,0.0922-3.2638,0.0922v-0.3469c1.2498-0.1851,1.5741-1.1346,1.5741-2.5231v-6.9216
			c0-0.7173-0.5555-1.2033-1.2502-1.3424v-0.3478c1.5281-0.1147,3.0326-0.3234,4.6298-0.6477L208.8641,26.2197L208.8641,26.2197z
			 M208.8641,14.0902c0,0.972-0.7408,1.8745-1.7593,1.8745c-1.0185,0-1.7593-0.9025-1.7593-1.8745
			c0-0.9729,0.7408-1.8754,1.7593-1.8754C208.1234,12.2148,208.8641,13.1173,208.8641,14.0902z"/>
		<path class="st0" d="M227.0836,21.8212l-0.3704-0.1156c-0.023-2.1066-1.1111-4.3515-3.4721-4.3515
			c-2.7778,0-3.4495,3.5177-3.4495,5.6252c0,2.7309,0.949,5.3931,3.9816,5.3931c1.8288,0,3.2638-1.3424,3.8195-3.0091l0.6486,0.6252
			c-1.0651,2.4996-3.1021,3.3569-5.7178,3.3569c-3.6112,0-6.5281-2.524-6.5281-6.366c0-4.0046,2.8705-6.366,6.8755-6.366
			c1.8749,0,3.6573,0.6477,5.324,1.4815L227.0836,21.8212z"/>
		<path class="st0" d="M242.8425,27.0761c-0.8798,1.3894-1.9675,2.2692-3.6808,2.2692c-2.3609,0-4.8845-0.8798-4.8845-3.589
			c0-3.2865,4.5141-4.2124,7.8245-4.2124h0.5091v-1.019c0-1.8754-1.0185-3.1709-2.7083-3.1709
			c-1.9444,0.0226-3.1947,1.5972-3.7964,3.9576l-0.3474,0.0931l-0.972-3.6577c2.0141-0.6016,3.9581-1.2033,6.0187-1.1337
			c3.1248,0,5.2084,1.2729,5.2084,5.2314v4.6298c0,1.0416,0.2778,1.9215,1.2499,2.1753v0.3477h-3.9122L242.8425,27.0761z
			 M242.6338,22.2847h-0.4165c-2.2453,0-4.1438,1.0651-4.1438,3.6108c0,1.2277,0.7177,2.477,2.0371,2.477
			c2.0141,0,2.5231-2.5466,2.5231-4.0741L242.6338,22.2847L242.6338,22.2847z"/>
		<path class="st0" d="M257.8189,19.252h0.0465c0.8334-1.7589,2.1066-2.6388,4.0972-2.6388c2.454,0,4.1898,1.6432,4.1898,4.0968
			v6.1347c0,1.0877,0.463,1.6902,1.5281,1.898v0.3469c-1.0651,0-2.2458-0.0922-3.2177-0.0922c-0.949,0-2.0371,0.0922-3.1021,0.0922
			v-0.3469c0.8103-0.0931,1.4124-0.7408,1.4124-1.898v-5.4635c0-1.5041-0.3935-3.4725-2.2453-3.4725
			c-1.991,0-2.5235,2.9865-2.5235,4.4681v2.7552c0,1.9215,0.3243,3.2638,1.5741,3.6108v0.3469
			c-1.0877,0-2.1988-0.0922-3.2639-0.0922c-1.0651,0-2.1762,0.0922-3.2638,0.0922v-0.3469
			c1.2499-0.3469,1.5741-1.6893,1.5741-3.6108v-4.9314c0-1.6198-0.7408-2.1058-1.4354-2.2449v-0.3478
			c1.5281-0.1147,3.0326-0.3234,4.6298-0.6477v2.2918H257.8189z"/>
		<path class="st0" d="M286.4756,24.0905l0.3704,0.1617c0.0691,1.5041,0.5091,4.375,1.9905,4.375
			c0.6482,0,1.6437-0.5555,1.6437-5.3705v-6.2034c0-1.5284-0.2777-2.3614-1.5045-2.5927v-0.3704
			c1.3889,0,2.5001,0.0922,3.5417,0.0922c1.0415,0,2.1527-0.0922,3.4721-0.0922v0.3704c-1.1573,0.2312-1.435,1.0642-1.435,2.5927
			v5.9261c0,4.1202-1.8983,6.4808-5.8104,6.4808c-1.412,0-2.5462-0.2312-3.7038-0.5321L286.4756,24.0905z"/>
		<path class="st0" d="M315.4408,22.9793c0,3.9116-3.2869,6.366-6.9907,6.366c-3.7037,0-6.9911-2.4544-6.9911-6.366
			c0-3.9124,3.2874-6.366,6.9911-6.366C312.1538,16.6133,315.4408,19.0668,315.4408,22.9793z M305.2553,22.9793
			c0,1.9902,0.5325,5.6252,3.1948,5.6252c2.6618,0,3.1943-3.6351,3.1943-5.6252c0-1.991-0.5325-5.6252-3.1943-5.6252
			C305.7878,17.354,305.2553,20.9883,305.2553,22.9793z"/>
		<path class="st0" d="M330.6667,26.7292c-0.9025,1.7589-2.1066,2.6161-4.0742,2.6161c-2.8934,0-4.3289-1.991-4.3289-4.7463
			c0-1.8058-0.0231-3.6108-0.0461-5.4401c0-0.8103-0.463-0.9946-1.1807-1.1572v-0.3703c1.5742-0.1383,3.1717-0.3243,4.7919-0.6712
			c-0.0695,1.0651-0.1852,2.9631-0.1852,5.1853v2.2918c0,1.505,0.3934,3.4716,2.2453,3.4716c2.0141,0,2.7083-2.384,2.7083-4.6984
			v-3.7734c0-0.9025-0.4395-1.3424-1.2963-1.4815v-0.3477c1.5746-0.1383,3.1717-0.3234,4.7458-0.6477
			c-0.0465,2.8239-0.0695,5.6948-0.0695,8.5422c0,2.1058,0.3239,2.8005,1.3659,3.1473v0.3477h-4.0972L330.6667,26.7292z"/>
		<path class="st0" d="M349.1875,20.6405c-0.3704-0.4165-0.7408-0.8103-1.3429-0.8103c-1.3428,0-1.8054,1.8058-1.8054,3.5195v1.7823
			c0,1.9215,0.3239,3.2638,1.5737,3.6108v0.3469c-1.0877,0-2.1988-0.0922-3.2639-0.0922c-1.0646,0-2.1758,0.0922-3.2638,0.0922
			v-0.3469c1.2502-0.3469,1.5741-1.6893,1.5741-3.6108v-4.9314c0-1.6198-0.7408-2.1058-1.435-2.2449v-0.3478
			c1.5276-0.1147,3.0322-0.3234,4.6988-0.6477c0,0.6016-0.0461,1.2738-0.0461,1.9675v1.3894h0.0461
			c0.4865-1.6441,1.7132-3.7038,3.6112-3.7038h1.0416L349.1875,20.6405z"/>
		<path class="st0" d="M360.6474,19.252h0.0465c0.8334-1.7589,2.1063-2.6388,4.0972-2.6388c2.4536,0,4.1898,1.6432,4.1898,4.0968
			v6.1347c0,1.0877,0.463,1.6902,1.5281,1.898v0.3469c-1.065,0-2.2453-0.0922-3.2177-0.0922c-0.949,0-2.037,0.0922-3.1017,0.0922
			v-0.3469c0.8098-0.0931,1.412-0.7408,1.412-1.898v-5.4635c0-1.5041-0.3938-3.4725-2.2458-3.4725
			c-1.9905,0-2.5231,2.9865-2.5231,4.4681v2.7552c0,1.9215,0.3243,3.2638,1.5741,3.6108v0.3469
			c-1.0881,0-2.1992-0.0922-3.2638-0.0922c-1.0646,0-2.1758,0.0922-3.2639,0.0922v-0.3469
			c1.2498-0.3469,1.5741-1.6893,1.5741-3.6108v-4.9314c0-1.6198-0.7408-2.1058-1.4355-2.2449v-0.3478
			c1.5281-0.1147,3.0326-0.3234,4.6298-0.6477v2.2918H360.6474z"/>
		<path class="st0" d="M384.4274,27.0761c-0.8798,1.3894-1.9675,2.2692-3.6807,2.2692c-2.3609,0-4.8846-0.8798-4.8846-3.589
			c0-3.2865,4.5142-4.2124,7.8245-4.2124h0.509v-1.019c0-1.8754-1.0186-3.1709-2.7083-3.1709
			c-1.9445,0.0226-3.1948,1.5972-3.7964,3.9576l-0.3474,0.0931l-0.972-3.6577c2.0141-0.6016,3.9581-1.2033,6.0187-1.1337
			c3.1248,0,5.2084,1.2729,5.2084,5.2314v4.6298c0,1.0416,0.2777,1.9215,1.2498,2.1753v0.3477h-3.912L384.4274,27.0761z
			 M384.2187,22.2847h-0.4165c-2.2453,0-4.1438,1.0651-4.1438,3.6108c0,1.2277,0.7177,2.477,2.0371,2.477
			c2.0141,0,2.523-2.5466,2.523-4.0741v-2.0136H384.2187z"/>
		<path class="st0" d="M396.346,15.0848c0-1.0416-0.3474-1.5041-1.3429-1.7128v-0.3469c1.5742-0.1626,3.1482-0.4399,4.7919-0.8103
			c0,0.7173-0.0695,1.6198-0.0695,2.477V25.132c0,1.9215,0.3243,3.2638,1.5741,3.6108v0.3469c-1.0876,0-2.1988-0.0922-3.2639-0.0922
			c-1.0651,0-2.1762,0.0922-3.2638,0.0922v-0.3469c1.2498-0.3469,1.5741-1.6893,1.5741-3.6108L396.346,15.0848L396.346,15.0848z"/>
		<path class="st0" d="M433.4522,22.9793c0,3.9116-3.2874,6.366-6.9911,6.366c-3.7037,0-6.9911-2.4544-6.9911-6.366
			c0-3.9124,3.2874-6.366,6.9911-6.366C430.1648,16.6134,433.4522,19.0668,433.4522,22.9793z M423.2663,22.9793
			c0,1.9902,0.5325,5.6252,3.1947,5.6252s3.1943-3.6351,3.1943-5.6252c0-1.991-0.5321-5.6252-3.1943-5.6252
			C423.7988,17.354,423.2663,20.9883,423.2663,22.9793z"/>
		<path class="st0" d="M443.9323,18.5347v7.6388c0,1.412,0.3243,2.384,1.5745,2.5692v0.3469c-1.0885,0-2.1997-0.0922-3.2639-0.0922
			c-1.0651,0-2.1762,0.0922-3.2647,0.0922v-0.3469c1.2503-0.1851,1.5746-1.1572,1.5746-2.5692v-7.6388h-1.991l0.4399-1.2041h1.5971
			c0-4.908,2.9631-5.1158,7.0372-5.1158l-1.2728,3.5412l-0.3009-0.1147c-0.1392-0.6486-0.3477-2.3849-1.1581-2.3849
			c-0.6016,0-0.972,0.4165-0.972,1.4815v2.5927h2.2918l-0.3929,1.2041L443.9323,18.5347L443.9323,18.5347z"/>
	</g>
	<g>
		<path class="st1" d="M47.6084,16.3114l1.2038-4.1202h14.5374l1.2036,4.1202h-0.5091c-0.9259-1.1798-3.0561-3.2874-4.6763-3.2874
			c-0.9724,0-1.2499,0.6486-1.2499,1.505v8.0787c0,2.084,0.0922,3.936,1.898,4.0281v0.4626c-1.3889,0-2.7083-0.0922-3.9351-0.0922
			c-1.2272,0-2.5466,0.0922-4.1207,0.0922v-0.4626c1.9905-0.0922,2.0836-1.9441,2.0836-4.0281v-8.0787
			c0-0.8564-0.2782-1.505-1.2502-1.505c-1.6206,0-3.7498,2.1075-4.6758,3.2874L47.6084,16.3114L47.6084,16.3114z"/>
		<path class="st1" d="M74.4483,17.2609h0.0465c0.8334-1.7589,2.1066-2.6388,4.0972-2.6388c2.454,0,4.1898,1.6432,4.1898,4.0968
			v6.1347c0,1.0877,0.463,1.6902,1.5281,1.898v0.3469c-1.0651,0-2.2458-0.0922-3.2178-0.0922c-0.949,0-2.0371,0.0922-3.1021,0.0922
			v-0.3469c0.8103-0.0931,1.4124-0.7408,1.4124-1.898v-5.4635c0-1.5041-0.3934-3.4725-2.2453-3.4725
			c-2.1301,0-2.7087,2.1075-2.7087,5.1853v2.038c0,1.9215,0.3243,3.2638,1.5742,3.6108v0.3469
			c-1.0877,0-2.1988-0.0922-3.2638-0.0922c-1.0651,0-2.1762,0.0922-3.2638,0.0922v-0.3469
			c1.2499-0.3469,1.5742-1.6893,1.5742-3.6108V13.0937c0-1.0416-0.3473-1.5041-1.3428-1.7128V11.034
			c1.5739-0.1626,3.148-0.4399,4.7221-0.8103V17.2609z"/>
		<path class="st1" d="M93.5311,19.6684v1.3198c0,2.5231,0.7408,5.3931,3.982,5.3931c2.4535,0,3.9581-2.2918,4.4676-4.4445
			l0.6016,0.4399c-0.8099,3.2874-3.0322,4.9775-6.5277,4.9775c-3.912,0-6.3195-2.9865-6.3195-6.366
			c0-3.5195,2.4074-6.366,6.3195-6.366c3.1712,0,5.9261,1.8049,6.0882,5.0462L93.5311,19.6684L93.5311,19.6684z M98.346,18.9276
			c-0.0691-1.4815-0.2773-3.5647-2.4075-3.5647c-2.1292,0-2.3379,2.0832-2.4075,3.5647H98.346z"/>
		<path class="st1" d="M125.8684,21.0804l-0.8795,1.8058c-0.3013,0.7173-0.5555,1.4355-0.5555,1.898
			c0,1.1572,0.7173,1.6432,1.7589,1.8519v0.4626c-0.949,0-2.0136-0.0922-2.87-0.0922c-0.8568,0-1.8288,0.0922-2.7778,0.0922v-0.4165
			c0.6712-0.1383,2.1292-1.3885,3.3335-3.6578l5.5322-10.4854c0.1391-0.2782,0.4169-0.8103,0.5555-0.8103h0.0465
			c0.1622,0,0.5325,0.6016,0.6712,0.879l6.0187,11.2966c1.0881,2.0136,1.7363,2.5231,2.4535,2.6622v0.5321
			c-1.2729,0-2.7544-0.0922-3.9351-0.0922c-1.1572,0-2.477,0.0922-3.7734,0.0922v-0.4626c0.7408-0.1617,1.2502-0.2548,1.2502-1.1337
			c0-0.533-0.3473-1.4128-0.7873-2.2458l-1.1341-2.1762L125.8684,21.0804L125.8684,21.0804z M126.2388,20.2935h4.1668
			l-2.1066-4.1898L126.2388,20.2935z"/>
		<path class="st1" d="M149.4558,17.2609h0.0465c0.8334-1.7589,2.1066-2.6388,4.0741-2.6388c2.0141,0,3.4721,1.0877,3.889,2.5692
			c0.8794-1.6893,2.1527-2.5692,4.1667-2.5692c2.4535,0,4.1898,1.6432,4.1898,4.0968v6.1347c0,1.0877,0.463,1.6902,1.5281,1.898
			v0.3469c-1.0651,0-2.2453-0.0922-3.2178-0.0922c-0.949,0-2.0371,0.0922-3.1017,0.0922v-0.3469
			c0.8099-0.0931,1.412-0.7408,1.412-1.898v-4.8845c0-2.0832-0.3938-4.0516-2.2457-4.0516c-1.7128,0-2.4305,2.2458-2.4305,4.0516
			v4.8845c0,1.0877,0.463,1.6902,1.5281,1.898v0.3469c-1.0651,0-2.2458-0.0922-3.2178-0.0922c-0.949,0-2.0371,0.0922-3.1021,0.0922
			v-0.3469c0.8103-0.0931,1.4124-0.7408,1.4124-1.898v-4.8845c0-2.0832-0.3934-4.0516-2.2453-4.0516
			c-1.7132,0-2.4309,2.2458-2.4309,4.0516v3.1717c0,1.9215,0.3243,3.2638,1.5741,3.6108v0.3469
			c-1.0881,0-2.1992-0.0922-3.2638-0.0922c-1.0646,0-2.1758,0.0922-3.2638,0.0922v-0.3469
			c1.2498-0.3469,1.5741-1.6893,1.5741-3.6108v-4.9313c0-1.6198-0.7408-2.1058-1.4355-2.2449v-0.3478
			c1.5281-0.1147,3.0326-0.3234,4.5602-0.6477v2.2918H149.4558z"/>
		<path class="st1" d="M176.5273,19.6684v1.3198c0,2.5231,0.7408,5.3931,3.9812,5.3931c2.454,0,3.9585-2.2918,4.468-4.4445
			l0.6016,0.4399c-0.8103,3.2874-3.0326,4.9775-6.5277,4.9775c-3.9124,0-6.3199-2.9865-6.3199-6.366
			c0-3.5195,2.4075-6.366,6.3199-6.366c3.1712,0,5.9261,1.8049,6.0878,5.0462L176.5273,19.6684L176.5273,19.6684z M181.3423,18.9276
			c-0.0695-1.4815-0.2782-3.5647-2.4075-3.5647c-2.1301,0-2.3384,2.0832-2.4075,3.5647H181.3423z"/>
		<path class="st1" d="M199.1701,18.6494c-0.3704-0.4165-0.7408-0.8103-1.3424-0.8103c-1.3424,0-1.8058,1.8058-1.8058,3.5195v1.7823
			c0,1.9215,0.3243,3.2638,1.5745,3.6108v0.3469c-1.0881,0-2.1992-0.0922-3.2643-0.0922c-1.0646,0-2.1758,0.0922-3.2638,0.0922
			v-0.3469c1.2498-0.3469,1.5741-1.6893,1.5741-3.6108v-4.9314c0-1.6198-0.7408-2.1058-1.4355-2.2449v-0.3478
			c1.5281-0.1147,3.0326-0.3234,4.6993-0.6477c0,0.6016-0.0461,1.2738-0.0461,1.9675v1.3894h0.0461
			c0.486-1.6441,1.7132-3.7038,3.6112-3.7038h1.042L199.1701,18.6494z"/>
		<path class="st1" d="M210.8553,24.2286c0,1.3885,0.3243,2.3379,1.5741,2.5231v0.3469c-1.0881,0-2.1992-0.0922-3.2638-0.0922
			c-1.0646,0-2.1758,0.0922-3.2638,0.0922v-0.3469c1.2498-0.1851,1.5741-1.1346,1.5741-2.5231V17.307
			c0-0.7173-0.5555-1.2033-1.2502-1.3424v-0.3478c1.5281-0.1147,3.0326-0.3234,4.6298-0.6477L210.8553,24.2286L210.8553,24.2286z
			 M210.8553,12.0991c0,0.972-0.7408,1.8745-1.7593,1.8745c-1.0185,0-1.7593-0.9025-1.7593-1.8745
			c0-0.9729,0.7408-1.8754,1.7593-1.8754C210.1145,10.2237,210.8553,11.1262,210.8553,12.0991z"/>
		<path class="st1" d="M229.0747,19.8301l-0.3704-0.1156c-0.023-2.1066-1.1112-4.3515-3.4721-4.3515
			c-2.7778,0-3.4495,3.5177-3.4495,5.6252c0,2.7309,0.949,5.3931,3.9816,5.3931c1.8288,0,3.2638-1.3424,3.8195-3.0091l0.6486,0.6252
			c-1.0651,2.4996-3.1021,3.3569-5.7178,3.3569c-3.6112,0-6.5281-2.524-6.5281-6.366c0-4.0046,2.8705-6.366,6.8755-6.366
			c1.8749,0,3.6573,0.6477,5.324,1.4815L229.0747,19.8301z"/>
		<path class="st1" d="M244.8336,25.085c-0.8798,1.3894-1.9675,2.2692-3.6808,2.2692c-2.3609,0-4.8845-0.8798-4.8845-3.589
			c0-3.2865,4.5141-4.2124,7.8245-4.2124h0.5091v-1.019c0-1.8754-1.0185-3.1709-2.7083-3.1709
			c-1.9444,0.0226-3.1947,1.5972-3.7964,3.9576l-0.3474,0.0931l-0.972-3.6577c2.0141-0.6016,3.9581-1.2033,6.0187-1.1337
			c3.1248,0,5.2084,1.2729,5.2084,5.2314v4.6298c0,1.0416,0.2778,1.9215,1.2499,2.1753v0.3477h-3.9122L244.8336,25.085z
			 M244.625,20.2935h-0.4165c-2.2453,0-4.1438,1.0651-4.1438,3.6108c0,1.2277,0.7177,2.477,2.0371,2.477
			c2.0141,0,2.5231-2.5466,2.5231-4.0741L244.625,20.2935L244.625,20.2935z"/>
		<path class="st1" d="M259.8101,17.2609h0.0465c0.8334-1.7589,2.1066-2.6388,4.0972-2.6388c2.454,0,4.1898,1.6432,4.1898,4.0968
			v6.1347c0,1.0877,0.463,1.6902,1.5281,1.898v0.3469c-1.0651,0-2.2458-0.0922-3.2177-0.0922c-0.949,0-2.0371,0.0922-3.1021,0.0922
			v-0.3469c0.8103-0.0931,1.4124-0.7408,1.4124-1.898v-5.4635c0-1.5041-0.3935-3.4725-2.2453-3.4725
			c-1.991,0-2.5235,2.9865-2.5235,4.4681v2.7552c0,1.9215,0.3243,3.2638,1.5741,3.6108v0.3469
			c-1.0877,0-2.1988-0.0922-3.2639-0.0922c-1.0651,0-2.1762,0.0922-3.2638,0.0922v-0.3469
			c1.2498-0.3469,1.5741-1.6893,1.5741-3.6108v-4.9314c0-1.6198-0.7408-2.1058-1.4354-2.2449v-0.3478
			c1.5281-0.1147,3.0326-0.3234,4.6298-0.6477v2.2918H259.8101z"/>
		<path class="st1" d="M288.4667,22.0993l0.3704,0.1617c0.0691,1.5041,0.5091,4.375,1.9905,4.375
			c0.6482,0,1.6437-0.5555,1.6437-5.3705v-6.2034c0-1.5284-0.2777-2.3614-1.5045-2.5927v-0.3704
			c1.3889,0,2.5001,0.0922,3.5417,0.0922c1.0415,0,2.1527-0.0922,3.4721-0.0922v0.3704c-1.1573,0.2312-1.435,1.0642-1.435,2.5927
			v5.9261c0,4.1202-1.8983,6.4808-5.8104,6.4808c-1.412,0-2.5462-0.2312-3.7037-0.5321L288.4667,22.0993z"/>
		<path class="st1" d="M317.4319,20.9882c0,3.9116-3.2869,6.366-6.9907,6.366c-3.7037,0-6.9911-2.4544-6.9911-6.366
			c0-3.9124,3.2874-6.366,6.9911-6.366C314.145,14.6221,317.4319,17.0757,317.4319,20.9882z M307.2465,20.9882
			c0,1.9902,0.5325,5.6252,3.1948,5.6252c2.6618,0,3.1943-3.6351,3.1943-5.6252c0-1.991-0.5325-5.6252-3.1943-5.6252
			C307.7789,15.3629,307.2465,18.9971,307.2465,20.9882z"/>
		<path class="st1" d="M332.6579,24.738c-0.9025,1.7589-2.1066,2.6161-4.0742,2.6161c-2.8934,0-4.3289-1.991-4.3289-4.7463
			c0-1.8058-0.0231-3.6108-0.0461-5.4401c0-0.8103-0.463-0.9946-1.1807-1.1572v-0.3703c1.5742-0.1383,3.1717-0.3243,4.7919-0.6712
			c-0.0695,1.0651-0.1852,2.9631-0.1852,5.1853v2.2918c0,1.505,0.3934,3.4716,2.2453,3.4716c2.0141,0,2.7083-2.384,2.7083-4.6984
			V17.446c0-0.9025-0.4395-1.3424-1.2963-1.4815v-0.3477c1.5746-0.1383,3.1717-0.3234,4.7458-0.6477
			c-0.0465,2.8239-0.0695,5.6948-0.0695,8.5422c0,2.1058,0.3239,2.8005,1.3659,3.1473v0.3477h-4.0972L332.6579,24.738z"/>
		<path class="st1" d="M351.1786,18.6494c-0.3704-0.4165-0.7408-0.8103-1.3429-0.8103c-1.3428,0-1.8054,1.8058-1.8054,3.5195v1.7823
			c0,1.9215,0.3239,3.2638,1.5737,3.6108v0.3469c-1.0877,0-2.1988-0.0922-3.2639-0.0922c-1.0646,0-2.1758,0.0922-3.2638,0.0922
			v-0.3469c1.2502-0.3469,1.5741-1.6893,1.5741-3.6108v-4.9314c0-1.6198-0.7408-2.1058-1.435-2.2449v-0.3478
			c1.5276-0.1147,3.0322-0.3234,4.6988-0.6477c0,0.6016-0.0461,1.2738-0.0461,1.9675v1.3894h0.0461
			c0.4865-1.6441,1.7132-3.7038,3.6112-3.7038h1.0416L351.1786,18.6494z"/>
		<path class="st1" d="M362.6386,17.2609h0.0465c0.8334-1.7589,2.1063-2.6388,4.0973-2.6388c2.4535,0,4.1898,1.6432,4.1898,4.0968
			v6.1347c0,1.0877,0.463,1.6902,1.5281,1.898v0.3469c-1.065,0-2.2453-0.0922-3.2177-0.0922c-0.949,0-2.037,0.0922-3.1017,0.0922
			v-0.3469c0.8098-0.0931,1.412-0.7408,1.412-1.898v-5.4635c0-1.5041-0.3938-3.4725-2.2458-3.4725
			c-1.9905,0-2.5231,2.9865-2.5231,4.4681v2.7552c0,1.9215,0.3243,3.2638,1.5741,3.6108v0.3469
			c-1.0881,0-2.1992-0.0922-3.2638-0.0922c-1.0646,0-2.1758,0.0922-3.2639,0.0922v-0.3469
			c1.2498-0.3469,1.5741-1.6893,1.5741-3.6108v-4.9314c0-1.6198-0.7408-2.1058-1.4355-2.2449v-0.3478
			c1.5281-0.1147,3.0326-0.3234,4.6298-0.6477v2.2918H362.6386z"/>
		<path class="st1" d="M386.4185,25.085c-0.8798,1.3894-1.9675,2.2692-3.6807,2.2692c-2.3609,0-4.8846-0.8798-4.8846-3.589
			c0-3.2865,4.5142-4.2124,7.8245-4.2124h0.509v-1.019c0-1.8754-1.0186-3.1709-2.7083-3.1709
			c-1.9445,0.0226-3.1948,1.5972-3.7964,3.9576l-0.3474,0.0931l-0.972-3.6577c2.0141-0.6016,3.9581-1.2033,6.0187-1.1337
			c3.1248,0,5.2084,1.2729,5.2084,5.2314v4.6298c0,1.0416,0.2777,1.9215,1.2498,2.1753v0.3477h-3.912L386.4185,25.085z
			 M386.2098,20.2935h-0.4165c-2.2453,0-4.1438,1.0651-4.1438,3.6108c0,1.2277,0.7177,2.477,2.0371,2.477
			c2.0141,0,2.523-2.5466,2.523-4.0741v-2.0136H386.2098z"/>
		<path class="st1" d="M398.3372,13.0937c0-1.0416-0.3474-1.5041-1.3429-1.7128V11.034c1.5742-0.1626,3.1482-0.4399,4.7919-0.8103
			c0,0.7173-0.0695,1.6198-0.0695,2.477v10.4402c0,1.9215,0.3243,3.2638,1.5741,3.6108v0.3469
			c-1.0876,0-2.1988-0.0922-3.2639-0.0922c-1.0651,0-2.1762,0.0922-3.2638,0.0922v-0.3469
			c1.2498-0.3469,1.5741-1.6893,1.5741-3.6108L398.3372,13.0937L398.3372,13.0937z"/>
		<path class="st1" d="M435.4433,20.9882c0,3.9116-3.2874,6.366-6.9911,6.366c-3.7037,0-6.9911-2.4544-6.9911-6.366
			c0-3.9124,3.2874-6.366,6.9911-6.366C432.1559,14.6222,435.4433,17.0757,435.4433,20.9882z M425.2574,20.9882
			c0,1.9902,0.5325,5.6252,3.1947,5.6252c2.6622,0,3.1943-3.6351,3.1943-5.6252c0-1.991-0.5321-5.6252-3.1943-5.6252
			C425.79,15.3629,425.2574,18.9971,425.2574,20.9882z"/>
		<path class="st1" d="M445.9235,16.5436v7.6388c0,1.412,0.3243,2.384,1.5745,2.5692v0.3469c-1.0885,0-2.1997-0.0922-3.2639-0.0922
			c-1.065,0-2.1762,0.0922-3.2647,0.0922v-0.3469c1.2503-0.1851,1.5746-1.1572,1.5746-2.5692v-7.6388h-1.991l0.4399-1.2041h1.5971
			c0-4.908,2.9631-5.1158,7.0372-5.1158l-1.2728,3.5412l-0.3009-0.1147c-0.1392-0.6486-0.3477-2.3849-1.1581-2.3849
			c-0.6016,0-0.972,0.4165-0.972,1.4815v2.5927h2.2918l-0.3929,1.2041L445.9235,16.5436L445.9235,16.5436z"/>
	</g>
</g>
<g>
	<g>
		<path class="st0" d="M21.5736,62.1903c-0.5717,3.1497-3.5176,7.5845-8.2765,7.5845c-4.1839,0-5.8907-3.7204-5.8907-12.8403
			c0-11.5086,3.4297-12.8394,6.0096-12.8394c4.3853,0,7.5548,5.0579,8.1566,8.7094l0.0515,0.3125h1.4026v-9.6548h-1.4404
			l-0.0179,0.3543c-0.0243,0.4805-0.1893,0.7784-0.9361,0.7784c-0.6503,0-1.5239-0.3446-2.5352-0.7445
			c-1.4021-0.5532-2.991-1.1803-4.6808-1.1803C5.1293,42.6701,0,50.3099,0,57.3876c0,8.9714,6.6469,13.812,12.9011,13.812
			c3.2264,0,5.14-0.9706,6.4061-1.6131c0.5931-0.3009,1.0614-0.5387,1.4045-0.5387c0.5936,0,0.9842,0.8347,1.1075,1.2763
			l0.0762,0.2718h1.2501v-9.9946h-1.2773L21.5736,62.1903z"/>
		<path class="st0" d="M49.3296,61.9185c0,3.767-0.9974,7.2525-8.2304,7.2525h-4.1863V44.6977h3.568v-1.4239H26.7708v1.4239h3.2118
			V69.171h-3.2118v1.4249h24.0181v-9.8062h-1.4593V61.9185z"/>
		<polygon class="st0" points="54.2462,44.6977 57.4575,44.6977 57.4575,69.171 54.2462,69.171 54.2462,70.5959 67.5991,70.5959 
			67.5991,69.171 64.3878,69.171 64.3878,44.6977 67.5991,44.6977 67.5991,43.2738 54.2462,43.2738 		"/>
		<path class="st0" d="M90.1414,44.6977h1.1254c2.3232,0,2.3232,1.3395,2.3232,1.7801V61.007L79.1136,43.2738h-8.7162v1.4239h1.42
			l1.5535,1.984v20.1434c0,2.0616-0.9643,2.346-2.0068,2.346H70.278v1.4249h8.2387V69.171h-0.7294
			c-2.2368,0-2.7197-0.3834-2.7197-2.1567V48.6821l18.0031,22.3671h2.2165V46.3643c0-0.8299,0.6692-1.6666,2.1645-1.6666h0.9279
			v-1.4239h-8.2381V44.6977z"/>
		<polygon class="st0" points="101.0983,44.6977 104.3095,44.6977 104.3095,69.171 101.0983,69.171 101.0983,70.5959 
			114.4511,70.5959 114.4511,69.171 111.2398,69.171 111.2398,44.6977 114.4511,44.6977 114.4511,43.2738 101.0983,43.2738 		"/>
		<path class="st0" d="M138.5997,62.1903c-0.5717,3.1497-3.5176,7.5845-8.2765,7.5845c-4.1844,0-5.8912-3.7204-5.8912-12.8403
			c0-11.5086,3.4302-12.8394,6.0101-12.8394c4.3853,0,7.5548,5.0579,8.1566,8.7094l0.0515,0.3125h1.4026v-9.6548h-1.4404
			l-0.0179,0.3543c-0.0243,0.4805-0.1892,0.7784-0.9366,0.7784c-0.6498,0-1.5234-0.3446-2.5348-0.7445
			c-1.4021-0.5532-2.9914-1.1803-4.6808-1.1803c-8.2867,0-13.416,7.6397-13.416,14.7176c0,8.9714,6.6469,13.812,12.9011,13.812
			c3.2264,0,5.14-0.9706,6.4061-1.6131c0.5931-0.3009,1.0609-0.5387,1.404-0.5387c0.5945,0,0.9847,0.8347,1.1075,1.2754
			l0.0762,0.2728h1.2506v-9.9948h-1.2778L138.5997,62.1903z"/>
		<path class="st0" d="M156.879,42.6701h-1.1046l-9.2893,24.4752c-0.5154,1.3511-1.2035,1.9383-2.3475,2.0257h-0.8877v1.4249h7.9213
			V69.171h-1.4826c-1.3487,0-1.5307-0.5183-1.5307-1.0249c0-0.3562,0.1514-0.7406,0.2558-1.0065l1.8145-5.0753h7.169l2.6193,7.1069
			h-3.0099v1.4248h12.5609V69.171h-2.0635L156.879,42.6701z M150.8179,60.6392l3.0298-8.1999l2.9613,8.1999H150.8179z"/>
		<path class="st0" d="M194.5654,61.9185c0,3.767-0.9974,7.2525-8.2309,7.2525h-4.1863V44.6977h3.568v-1.4239h-13.7096v1.4239
			h3.2113V69.171h-3.2113v1.4249h24.0176v-9.8062h-1.4588L194.5654,61.9185L194.5654,61.9185z"/>
		<path class="st0" d="M231.2763,44.6977h1.1259c2.3232,0,2.3232,1.3395,2.3232,1.7801V61.007l-14.4763-17.7332h-8.7167v1.4239
			h1.4205l1.5535,1.984v20.1434c0,2.0616-0.9643,2.346-2.0068,2.346h-1.0857v1.4249h8.2382V69.171h-0.7295
			c-2.2368,0-2.7197-0.3834-2.7197-2.1567V48.6821l18.0031,22.3671h2.2164V46.3643c0-0.8299,0.6692-1.6666,2.1645-1.6666h0.9279
			v-1.4239h-8.2387L231.2763,44.6977L231.2763,44.6977z"/>
		<path class="st0" d="M261.3395,44.6977h1.5224c1.7073,0,2.2833,0.7057,2.2833,2.7983v14.3468c0,5.3471-3.4734,7.2525-6.724,7.2525
			c-5.7699,0-6.5653-3.9213-6.5653-8.159V44.6977h3.2113v-1.4239h-13.2345v1.4239h3.0928v16.7296
			c0,5.9363,4.3479,9.7723,11.0773,9.7723c6.9894,0,10.8389-3.404,10.8389-9.5839V47.496c0-2.4596,0.812-2.7983,1.6894-2.7983
			h1.4031v-1.4239h-8.5949v1.4239H261.3395z"/>
		<path class="st0" d="M272.3119,52.2861h1.4098l0.0456-0.3203c0.6246-4.362,2.0009-7.268,6.6881-7.268h1.2526v24.4733h-3.6869
			v1.4248h14.3045V69.171h-3.6874V44.6977h1.2531c4.6872,0,6.0634,2.9061,6.688,7.268l0.0456,0.3203h1.4093v-9.0122H272.312
			L272.3119,52.2861L272.3119,52.2861z"/>
		<path class="st0" d="M327.7723,68.6575c-0.4183,0.2543-0.9377,0.4378-1.2342,0.4378c-1.1385,0-1.766,0-1.8476-6.1286
			c-0.0709-3.6069-2.2426-5.8131-6.6226-6.7012c3.0351-0.5921,7.1778-2.1732,7.1778-6.3906c0-3.0118-2.0456-6.6013-11.7906-6.6013
			h-12.8219v1.4239h3.2118v24.4733h-3.2118v1.4251h13.4717V69.171h-3.3297V57.1178h1.7214c3.7403,0.0689,5.2637,0.694,5.2637,6.6876
			c0,3.4428,0.6415,7.3942,5.6461,7.3942c0.9444,0,3.3268-0.132,5.0516-1.3511l0.2592-0.1835l-0.5959-1.2181L327.7723,68.6575z
			 M310.7753,44.6977h2.5212c3.2972,0,4.543,0.4106,4.543,4.7726c0.1184,4.6765-1.007,6.014-5.2171,6.2226h-1.8471L310.7753,44.6977
			L310.7753,44.6977z"/>
		<polygon class="st0" points="331.1952,44.6977 334.4061,44.6977 334.4061,69.171 331.1952,69.171 331.1952,70.5959 
			344.5476,70.5959 344.5476,69.171 341.3363,69.171 341.3363,44.6977 344.5476,44.6977 344.5476,43.2738 331.1952,43.2738 		"/>
		<path class="st0" d="M347.2853,52.2861h1.4093l0.0456-0.3203c0.6246-4.362,2.0014-7.268,6.6886-7.268h1.2525v24.4733h-3.6874
			v1.4248h14.3045V69.171h-3.6869V44.6977h1.2531c4.6862,0,6.063,2.9061,6.6881,7.268l0.0456,0.3203h1.4088v-9.0122h-25.722v9.0123
			H347.2853z"/>
		<polygon class="st0" points="375.7857,44.6977 378.9971,44.6977 378.9971,69.171 375.7857,69.171 375.7857,70.5959 
			389.1386,70.5959 389.1386,69.171 385.9272,69.171 385.9272,44.6977 389.1386,44.6977 389.1386,43.2738 375.7857,43.2738 		"/>
		<path class="st0" d="M404.6331,42.6701c-7.2781,0-12.9797,6.2654-12.9797,14.2555c-0.0849,3.7796,1.4443,7.5612,4.1956,10.375
			c2.4581,2.5149,5.5777,3.899,8.7842,3.899c3.2069,0,6.3265-1.385,8.7852-3.899c2.7513-2.8138,4.2805-6.5954,4.1955-10.3662
			C417.6137,48.9355,411.9119,42.6701,404.6331,42.6701z M404.6331,44.095c2.6969,0,5.5743,0.992,5.5743,12.8394
			c0,9.7198-1.3545,12.8403-5.5743,12.8403c-4.2192,0-5.5738-3.1205-5.5738-12.8403
			C399.0593,45.0869,401.9362,44.095,404.6331,44.095z"/>
		<path class="st0" d="M439.7707,43.2738v1.4239h1.1254c2.3237,0,2.3237,1.3395,2.3237,1.7801V61.007l-14.4763-17.7332h-8.7167
			v1.4239h1.42l1.5535,1.984v20.1434c0,2.0616-0.9643,2.346-2.0063,2.346h-1.0861v1.4249h8.2382V69.171h-0.7295
			c-2.2368,0-2.7197-0.3834-2.7197-2.1567V48.6821L442.7,71.0492h2.2164V46.3643c0-0.8299,0.6693-1.6666,2.1645-1.6666h0.9279
			v-1.4239C448.0089,43.2738,439.7707,43.2738,439.7707,43.2738z"/>
	</g>
	<g>
		<path class="st1" d="M23.5648,60.1991c-0.5717,3.1497-3.5176,7.5845-8.2765,7.5845c-4.1839,0-5.8907-3.7204-5.8907-12.8403
			c0-11.5086,3.4297-12.8394,6.0096-12.8394c4.3853,0,7.5548,5.0579,8.1566,8.7094l0.0515,0.3125h1.4026v-9.6548h-1.4404
			l-0.0179,0.3543c-0.0243,0.4805-0.1893,0.7784-0.9361,0.7784c-0.6503,0-1.5239-0.3446-2.5352-0.7445
			c-1.4021-0.5532-2.991-1.1803-4.6808-1.1803c-8.2869,0-13.4162,7.6397-13.4162,14.7175c0,8.9714,6.6469,13.812,12.9011,13.812
			c3.2264,0,5.14-0.9706,6.4061-1.6131c0.5931-0.3009,1.0614-0.5387,1.4045-0.5387c0.5936,0,0.9842,0.8347,1.1075,1.2763
			l0.0762,0.2718h1.2501v-9.9946h-1.2773L23.5648,60.1991z"/>
		<path class="st1" d="M51.3207,59.9273c0,3.767-0.9974,7.2525-8.2304,7.2525H38.904V42.7065h3.568v-1.4239H28.762v1.4239h3.2118
			v24.4733H28.762v1.4249H52.78v-9.8062h-1.4593V59.9273z"/>
		<polygon class="st1" points="56.2374,42.7065 59.4487,42.7065 59.4487,67.1799 56.2374,67.1799 56.2374,68.6047 69.5902,68.6047 
			69.5902,67.1799 66.379,67.1799 66.379,42.7065 69.5902,42.7065 69.5902,41.2827 56.2374,41.2827 		"/>
		<path class="st1" d="M92.1325,42.7065h1.1254c2.3232,0,2.3232,1.3394,2.3232,1.7801v14.5292L81.1047,41.2827h-8.7162v1.4239h1.42
			l1.5535,1.984v20.1434c0,2.0616-0.9643,2.346-2.0068,2.346h-1.0862v1.4249h8.2387v-1.4249h-0.7294
			c-2.2368,0-2.7197-0.3834-2.7197-2.1567V46.6909L95.0618,69.058h2.2165V44.3731c0-0.8299,0.6692-1.6666,2.1645-1.6666h0.9279
			v-1.4239h-8.2381V42.7065z"/>
		<polygon class="st1" points="103.0894,42.7065 106.3007,42.7065 106.3007,67.1799 103.0894,67.1799 103.0894,68.6047 
			116.4423,68.6047 116.4423,67.1799 113.2309,67.1799 113.2309,42.7065 116.4423,42.7065 116.4423,41.2827 103.0894,41.2827 		"/>
		<path class="st1" d="M140.5909,60.1991c-0.5717,3.1497-3.5176,7.5845-8.2765,7.5845c-4.1844,0-5.8912-3.7204-5.8912-12.8403
			c0-11.5086,3.4301-12.8394,6.0101-12.8394c4.3853,0,7.5548,5.0579,8.1566,8.7094l0.0515,0.3125h1.4026v-9.6548h-1.4404
			l-0.0179,0.3543c-0.0243,0.4805-0.1892,0.7784-0.9366,0.7784c-0.6498,0-1.5234-0.3446-2.5348-0.7445
			c-1.4021-0.5532-2.9914-1.1803-4.6808-1.1803c-8.2867,0-13.416,7.6397-13.416,14.7176c0,8.9714,6.6469,13.812,12.9011,13.812
			c3.2264,0,5.14-0.9706,6.4061-1.6131c0.5931-0.3009,1.0609-0.5387,1.404-0.5387c0.5945,0,0.9847,0.8347,1.1075,1.2754
			l0.0762,0.2728h1.2506v-9.9948h-1.2778L140.5909,60.1991z"/>
		<path class="st1" d="M158.8701,40.679h-1.1046l-9.2893,24.4752c-0.5154,1.3511-1.2035,1.9383-2.3475,2.0257h-0.8877v1.4249h7.9213
			v-1.4249h-1.4826c-1.3487,0-1.5307-0.5183-1.5307-1.0249c0-0.3562,0.1514-0.7406,0.2558-1.0065l1.8145-5.0753h7.169l2.6193,7.1069
			h-3.0099v1.4248h12.5609v-1.4249h-2.0635L158.8701,40.679z M152.8091,58.6481l3.0298-8.1999l2.9613,8.1999H152.8091z"/>
		<path class="st1" d="M196.5565,59.9273c0,3.767-0.9974,7.2525-8.2309,7.2525h-4.1863V42.7065h3.568v-1.4239h-13.7096v1.4239
			h3.2113v24.4733h-3.2113v1.4249h24.0176v-9.8062h-1.4588L196.5565,59.9273L196.5565,59.9273z"/>
		<path class="st1" d="M233.2675,42.7065h1.1259c2.3232,0,2.3232,1.3394,2.3232,1.7801v14.5292l-14.4763-17.7332h-8.7167v1.4239
			h1.4205l1.5535,1.984v20.1434c0,2.0616-0.9643,2.346-2.0068,2.346h-1.0857v1.4249h8.2382v-1.4249h-0.7295
			c-2.2368,0-2.7197-0.3834-2.7197-2.1567V46.6909l18.0031,22.3671h2.2164V44.3731c0-0.8299,0.6692-1.6666,2.1645-1.6666h0.9279
			v-1.4239h-8.2387L233.2675,42.7065L233.2675,42.7065z"/>
		<path class="st1" d="M263.3307,42.7065h1.5224c1.7073,0,2.2833,0.7057,2.2833,2.7983v14.3468c0,5.3471-3.4734,7.2525-6.724,7.2525
			c-5.7699,0-6.5653-3.9213-6.5653-8.159V42.7065h3.2113v-1.4239h-13.2345v1.4239h3.0928v16.7296
			c0,5.9363,4.3479,9.7723,11.0773,9.7723c6.9894,0,10.8389-3.404,10.8389-9.5839V45.5048c0-2.4596,0.812-2.7983,1.6894-2.7983
			h1.4031v-1.4239h-8.5949v1.4239H263.3307z"/>
		<path class="st1" d="M274.3031,50.2949h1.4098l0.0456-0.3203c0.6246-4.362,2.0009-7.268,6.6881-7.268h1.2526V67.18h-3.6869v1.4248
			h14.3045v-1.4249h-3.6874V42.7065h1.2531c4.6872,0,6.0634,2.9061,6.688,7.268l0.0456,0.3203h1.4093v-9.0122h-25.7225
			L274.3031,50.2949L274.3031,50.2949z"/>
		<path class="st1" d="M329.7635,66.6664c-0.4183,0.2543-0.9377,0.4378-1.2342,0.4378c-1.1385,0-1.766,0-1.8476-6.1286
			c-0.0709-3.6069-2.2426-5.8131-6.6226-6.7012c3.0351-0.5921,7.1778-2.1732,7.1778-6.3906c0-3.0118-2.0456-6.6013-11.7906-6.6013
			h-12.8219v1.4239h3.2118v24.4733h-3.2118v1.4251h13.4717v-1.4249h-3.3297V55.1266h1.7214
			c3.7403,0.0689,5.2637,0.694,5.2637,6.6876c0,3.4428,0.6415,7.3942,5.6461,7.3942c0.9444,0,3.3268-0.132,5.0516-1.3511
			l0.2592-0.1835l-0.5959-1.2181L329.7635,66.6664z M312.7664,42.7065h2.5212c3.2972,0,4.543,0.4106,4.543,4.7726
			c0.1184,4.6765-1.007,6.014-5.2171,6.2226h-1.8471L312.7664,42.7065L312.7664,42.7065z"/>
		<polygon class="st1" points="333.1864,42.7065 336.3972,42.7065 336.3972,67.1799 333.1864,67.1799 333.1864,68.6047 
			346.5387,68.6047 346.5387,67.1799 343.3275,67.1799 343.3275,42.7065 346.5387,42.7065 346.5387,41.2827 333.1864,41.2827 		"/>
		<path class="st1" d="M349.2765,50.2949h1.4093l0.0456-0.3203c0.6246-4.362,2.0014-7.268,6.6886-7.268h1.2525V67.18h-3.6874v1.4248
			h14.3045v-1.4249h-3.6869V42.7065h1.2531c4.6862,0,6.063,2.9061,6.6881,7.268l0.0456,0.3203h1.4088v-9.0122h-25.722v9.0123
			H349.2765z"/>
		<polygon class="st1" points="377.7769,42.7065 380.9882,42.7065 380.9882,67.1799 377.7769,67.1799 377.7769,68.6047 
			391.1298,68.6047 391.1298,67.1799 387.9184,67.1799 387.9184,42.7065 391.1298,42.7065 391.1298,41.2827 377.7769,41.2827 		"/>
		<path class="st1" d="M406.6243,40.679c-7.2781,0-12.9797,6.2654-12.9797,14.2555c-0.0849,3.7796,1.4443,7.5612,4.1956,10.375
			c2.4581,2.5149,5.5777,3.899,8.7842,3.899c3.2069,0,6.3265-1.385,8.7852-3.899c2.7513-2.8138,4.2805-6.5954,4.1955-10.3662
			C419.6049,46.9443,413.903,40.679,406.6243,40.679z M406.6243,42.1038c2.6969,0,5.5743,0.992,5.5743,12.8394
			c0,9.7198-1.3545,12.8403-5.5743,12.8403c-4.2192,0-5.5738-3.1205-5.5738-12.8403
			C401.0504,43.0957,403.9274,42.1038,406.6243,42.1038z"/>
		<path class="st1" d="M441.7618,41.2827v1.4239h1.1254c2.3237,0,2.3237,1.3394,2.3237,1.7801v14.5292l-14.4763-17.7332h-8.7167
			v1.4239h1.42l1.5535,1.984v20.1434c0,2.0616-0.9643,2.346-2.0063,2.346h-1.0861v1.4249h8.2382v-1.4249h-0.7295
			c-2.2368,0-2.7197-0.3834-2.7197-2.1567V46.6909l18.0031,22.3671h2.2164V44.3731c0-0.8299,0.6693-1.6666,2.1645-1.6666H450
			v-1.4239C450,41.2827,441.7618,41.2827,441.7618,41.2827z"/>
	</g>
</g>
</svg>
